<svg id="圖層_1" data-name="圖層 1" xmlns="http://www.w3.org/2000/svg" viewBox="0 0 350 163.23"><defs><style>.cls-1{fill:#262e3b;}.cls-2,.cls-8{fill:#fff;}.cls-3,.cls-4{fill:#686564;}.cls-3{stroke:#686564;stroke-miterlimit:10;stroke-width:1.42px;}.cls-5{fill:#666767;}.cls-5,.cls-6{fill-rule:evenodd;}.cls-6,.cls-9{fill:#3f98c1;}.cls-7,.cls-8,.cls-9{isolation:isolate;}.cls-8{font-size:39.93px;}.cls-8,.cls-9{font-family:FZLTTHB--B51-0, Lantinghei TC;}.cls-9{font-size:14.87px;}</style></defs><rect class="cls-1" width="350" height="163.23"/><path class="cls-2" d="M4.52,6.34V18.52a3.87,3.87,0,0,0,3.82,3.82h30l-2.71-6.53L13.41,43.93c-3.26,4.12-6.75,8.14-9.8,12.41C.91,60.11,2.11,66,2.11,70.5a3.88,3.88,0,0,0,3.83,3.84H57.78a3.89,3.89,0,0,0,3.82-3.83V58.17a3.88,3.88,0,0,0-3.82-3.83H24.36l2.71,6.53,22.3-28c3.26-4.1,6.78-8.09,9.84-12.35,2.7-3.76,1.49-9.7,1.49-14.16a3.88,3.88,0,0,0-3.82-3.81H8.34c-4.92,0-4.93,7.65,0,7.65H56.88L53.05,6.34v11l1.12-2.7L21.66,55.47c-2,2.47-.88,6.53,2.7,6.53H57.78L54,58.17V70.5l3.83-3.83H5.94L9.78,70.5v-11L8.66,62.2,41,21.2c2-2.48.89-6.54-2.7-6.54h-30l3.83,3.83V6.34C12.17,1.45,4.52,1.44,4.52,6.34Z" transform="translate(-0.5 0.25)"/><path class="cls-2" d="M70.26,49.12c-.39,6.5,1.86,13.42,8.65,15.63A12.47,12.47,0,0,0,94.79,57.1a12.33,12.33,0,0,0,.64-3L91.61,58l12.66.92-3.83-3.83c-.47,4-5,8.22-8.2,10.16-4.59,2.78-10.76,3-15.84,1.54C65.48,63.65,61.46,52,63.65,41.59,65.9,30.89,75.32,24,86.31,26.34c11.28,2.4,14.26,12.53,14.47,22.78l3.78-3.78H74.09c-4.92,0-4.93,7.65,0,7.65h30.47a3.87,3.87,0,0,0,3.82-3.83c-.23-14.76-6.52-28.62-22.72-30.59C70.31,16.7,57.89,27.2,55.83,42.24c-2,14.7,5.43,29.58,20.86,32.48,13.2,2.47,29.66-4.87,31.4-19.62.26-2.15-2-3.69-3.82-3.82l-12.66-.94c-2.19-.16-3.66,1.89-3.83,3.83-.41,4.8-7.34,4.26-9.16.89-1-1.89-.83-3.88-.7-5.92C78.22,44.2,70.57,44.22,70.26,49.12Z" transform="translate(-0.5 0.25)"/><path class="cls-2" d="M94.71,41c-.53-7.11-3.82-13.74-11.83-13.79-8.21,0-12,6.41-12.75,13.79C69.92,43,72.05,44.78,74,44.78H90.89c4.92,0,4.93-7.65,0-7.65H74L77.78,41c.33-3.21,1.42-6.21,5.1-6.14,3.4.07,4,3.26,4.18,6.14C87.43,45.84,95.08,45.88,94.71,41Z" transform="translate(-0.5 0.25)"/><path class="cls-2" d="M117.78,23v8a3.89,3.89,0,0,0,3.83,3.83h.17a3.79,3.79,0,0,0,3.31-1.89c2.39-4.74,5.59-7.23,11.09-7,4,.19,7.62,1.79,8.88,5.8,1.37,4.33.94,9.23.94,13.74v25l3.83-3.83H136l3.83,3.83V49.13c0-7.76.73-20.06-10.07-20s-11.26,12-11.26,20V70.5l3.83-3.83h-13.8l3.83,3.83V23l-3.83,3.83h13c4.92,0,4.93-7.66,0-7.66h-13A3.89,3.89,0,0,0,104.78,23V70.5a3.89,3.89,0,0,0,3.78,3.84h13.81a3.89,3.89,0,0,0,3.83-3.83c0-3.88-2-34.24,3.6-33.73,3.68.34,2.42,14.54,2.42,17.55V70.5A3.88,3.88,0,0,0,136,74.34h13.8a3.89,3.89,0,0,0,3.83-3.83c0-9.78.09-19.57,0-29.35-.09-8.67-1.28-17.8-10.32-21.44a19.12,19.12,0,0,0-24.86,9.35l3.3-1.89h-.18L125.43,31V23C125.43,18.05,117.78,18.05,117.78,23Z" transform="translate(-0.5 0.25)"/><path class="cls-2" d="M186.85,36.21c-2.55-8-12.6-12.15-20.14-7.61a7.39,7.39,0,0,0-3.42,8.32c1.36,4.61,6.63,5.44,10.66,6.18,5.05.93,12.67,1,16,5.63s1.58,11.77-2.49,15.12c-5,4.11-13.07,4.43-19.13,3.22-6.28-1.25-10.47-4.39-12.19-10.64l-2.67,4.71,11.85-1.8-4.71-2.67c2.46,8.83,13,11.06,20.85,8,3.72-1.44,6.4-4.88,5.28-9-1.32-4.89-6.47-5.54-10.69-6.17-4.78-.72-11.38-1.19-15-4.76-4-3.93-3.81-11.4.56-15,8.57-7,23.88-4.91,28.13,5.71l2.67-4.7-10.27,2.79c-4.75,1.29-2.73,8.68,2,7.38l10.25-2.79c1.83-.5,3.44-2.79,2.67-4.71-3.61-9-10.45-14.32-20.23-15-9.37-.69-21.2,2.49-25,12.07-3.6,9.16.27,19.6,9.45,23.45,4.95,2.08,10.27,2.34,15.47,3.38a8.49,8.49,0,0,1,2.67.65L178,57.82a15.3,15.3,0,0,1-4.67.41c-2.61-.22-4.65-.92-5.39-3.57-.6-2.16-2.65-3-4.71-2.67l-11.85,1.82c-2,.31-3.17,2.9-2.67,4.7,2.8,10.16,10.79,15.36,21,16.51,10.05,1.14,22.11-1.29,27.29-11,4.06-7.58,2.55-18.48-4.78-23.44-4.88-3.29-10.65-3.82-16.29-4.86-1.3-.24-7-.8-3.53-1,3.18-.18,5.94.14,7,3.52C181,42.92,188.35,40.92,186.85,36.21Z" transform="translate(-0.5 0.25)"/><path class="cls-2" d="M222.58,51.79V38.2L218.78,42h6.64c.69,0,.57-.13-.3,0-3.46.73-3.43,5.27-.91,7,1.45,1,2.31,3.14,3.21,4.62l3.31-5.76h-3.21l3.31,1.9c-2.48-3.77-4.28-7.57-9.37-7.57a3.88,3.88,0,0,0-3.82,3.83v5.67l3.82-3.83h-2.68c-4.92,0-4.93,7.66,0,7.66h2.68a3.89,3.89,0,0,0,3.83-3.83v-5.6l-3.83,3.82c.74,0,.57,0-.06-.47a7.51,7.51,0,0,1,.93,1.37c.59.89,1.14,1.81,1.76,2.68,1.72,2.44,4,2.1,6.64,2.1a3.86,3.86,0,0,0,3.8-3.92,3.82,3.82,0,0,0-.5-1.84c-1.71-2.8-3.19-5.48-6-7.37l-.92,7C233.69,48.1,236,39,229.72,35.43c-3-1.71-7.59-1-11-1a3.87,3.87,0,0,0-3.82,3.82V51.79C214.93,56.71,222.58,56.72,222.58,51.79Z" transform="translate(-0.5 0.25)"/><path class="cls-2" d="M221.43,47.77h3.41a6.58,6.58,0,0,0,3.48-1A5.42,5.42,0,0,0,230.67,42c-.13-3.36-2.8-5.27-6-5.34H221.4a3.89,3.89,0,0,0-3.82,3.83v3.41a3.83,3.83,0,1,0,7.65.39,2.54,2.54,0,0,0,0-.39V40.5l-3.8,3.84h3.35a2.16,2.16,0,0,1-.34-4.08c.34-.14,1.38-.19.54-.15h-3.55a3.83,3.83,0,0,0,0,7.65Z" transform="translate(-0.5 0.25)"/><path class="cls-2" d="M240.42,48.19l-1.54,2,5.23-1.38a4.93,4.93,0,0,1-1.39-1,4,4,0,0,0-5.41,0c-.77.63-3.29.68-.91-.66,1.66-.94,2.59-3.59,1.37-5.24-.32-1-.74-1.07-1.24-.21a.9.9,0,0,0,.4,0c-.76-1.11.79-1.87-.8-.79s-2.68,3.49-1.37,5.24l1.85,2.5c1.5,2,5.33,2.92,6.61,0a19.72,19.72,0,0,0,.93-2.46l-4.7,2.67,2.3.53-2.67-4.71a6.4,6.4,0,0,1-.76,1.88,3.84,3.84,0,0,0,.6,4.64,18.16,18.16,0,0,0,2.86,2.23c4.28,2.46,8.13-4.15,3.86-6.61a8.77,8.77,0,0,1-1.32-.94l.6,4.64a13.1,13.1,0,0,0,1.53-3.71,3.86,3.86,0,0,0-2.67-4.71l-2.31-.53a3.92,3.92,0,0,0-4.69,2.67l-.16.63h6.61l-1.87-2.53L240,47.57c2.5-1.7,4.38-3.73,4.26-7a6.92,6.92,0,0,0-5.6-6.31c-7.16-1.58-11.76,5.7-7.49,11.49l1.38-5.23c-4.57,2.56-6.81,8.48-2.85,12.7,3.54,3.78,9.37,3,13,0h-5.41a17.79,17.79,0,0,0,2.94,2.16c1.95,1.13,4,.29,5.24-1.37L247,52c1.27-1.65.25-4.26-1.37-5.23-2-1.17-4-.26-5.23,1.37Z" transform="translate(-0.5 0.25)"/><path class="cls-2" d="M233.86,42.26c-3.4,1.85-5,6.51-2.15,9.6a5.74,5.74,0,0,0,4.62,1.83,8.12,8.12,0,0,0,4.76-2.15,3.82,3.82,0,0,0,1.12-2.71,4.44,4.44,0,0,0-1.12-2.7l-2.59-3.27c-1.25-1.58-4.12-1.4-5.41,0a4,4,0,0,0,0,5.41l2.59,3.27V46.13c.71-.6.12-.11,0,0-.53.36.61-.19.11,0-.28.07-.18.06.29,0l.53.1c-.31-.09-.3-.07,0,0a1.59,1.59,0,0,1,.7.43,1.9,1.9,0,0,1,.34,2.22c.36-.78-.51.47,0,0l-.38.29a4.39,4.39,0,0,1,.47-.27,3.86,3.86,0,0,0,1.37-5.24A3.92,3.92,0,0,0,233.86,42.26Z" transform="translate(-0.5 0.25)"/><path class="cls-2" d="M238.72,46.05a7.81,7.81,0,0,0,3.12-3.63,4.91,4.91,0,0,0-.55-4.07A5.25,5.25,0,0,0,237.14,36c-3.2-.26-6.14,2.83-5.23,6a9.18,9.18,0,0,0,2.18,3.41,3.83,3.83,0,0,0,5.41,0,3.93,3.93,0,0,0,0-5.41c-.26-.3-.53-.6-.77-.91l.6.78a3.76,3.76,0,0,1-.36-.61l.38.91a1.34,1.34,0,0,1-.07-.27l.14,1a.71.71,0,0,1,0-.29l-.14,1,.05-.15-.39.91a1,1,0,0,1,.17-.28l-.6.78a1.37,1.37,0,0,1,.25-.23l-.78.6.14-.07-.91.38a2.15,2.15,0,0,1,.5-.12l-1,.13a4.69,4.69,0,0,1,.53,0l-1-.13a1,1,0,0,1,.29.08l-.91-.39a1.28,1.28,0,0,1,.25.15l-.77-.6a1.15,1.15,0,0,1,.22.22l-.6-.78a1.2,1.2,0,0,1,.16.27l-.39-.92a1.11,1.11,0,0,1,.08.3l-.13-1a1.5,1.5,0,0,1,0,.3l.14-1a1.38,1.38,0,0,1-.08.27l.39-.91c-.08.14-.16.27-.25.4l.59-.78a4,4,0,0,1-.41.41l.77-.6-.69.53a4.21,4.21,0,0,0-1.76,2.28,4,4,0,0,0,2.64,4.77A3.7,3.7,0,0,0,238.72,46.05Z" transform="translate(-0.5 0.25)"/><path class="cls-2" d="M245.18,42h4.32c2.27,0,3,.59,3,3.09,0,2.31-.71,2.82-2.87,2.84h-4.45L249,51.79V38.2c0-4.92-7.65-4.93-7.65,0V51.79a3.88,3.88,0,0,0,3.82,3.83c2.52,0,5.32.29,7.79-.27,4.8-1.09,7.16-5.59,7.18-10.23s-2.32-9.5-7.3-10.5c-2.45-.5-5.17-.24-7.67-.24C240.26,34.34,240.25,42,245.18,42Z" transform="translate(-0.5 0.25)"/><path class="cls-2" d="M244,40.5v9a3.87,3.87,0,0,0,3.82,3.84,16,16,0,0,0,5.06-.39c3.21-1.07,4.31-4.23,4.44-7.32s-.58-6.29-3.26-8c-1.85-1.15-4.15-1-6.24-1-4.92,0-4.93,7.66,0,7.66a12.27,12.27,0,0,0,2.57,0c.35-.08-.11,0-.39-.22a.58.58,0,0,1-.34-.36q-.18-.37-.06,0a8,8,0,0,1,.07,1.83s.06.7,0,.47c.16.5-.34.32.17,0,0,0,1-.57,1-.46a8.34,8.34,0,0,1-1,0h-2l3.83,3.83v-9C251.69,35.58,244,35.57,244,40.5Z" transform="translate(-0.5 0.25)"/><path class="cls-2" d="M286,23v8.91a3.88,3.88,0,0,0,3.81,3.83h.28a3.91,3.91,0,0,0,3.72-2.81c1.53-5,3.6-7.14,8.78-6.83l-3.78-3.83V36.06l3.82-3.82c-12.17.43-15.48,9.6-15.57,20.55V70.5l3.75-3.83H277l3.83,3.83V23L277,26.81h12.76c4.92,0,4.93-7.66,0-7.66H277A3.89,3.89,0,0,0,273.2,23V70.5A3.88,3.88,0,0,0,277,74.34h13.76a3.89,3.89,0,0,0,3.83-3.83V56.34c0-2-.06-3.91,0-5.86.28-5.87,1.34-10.4,7.88-10.63A3.89,3.89,0,0,0,306.32,36V22.25a3.89,3.89,0,0,0-3.83-3.82c-8.69-.52-13.7,4.33-16.16,12.45L290,28.07h-.24l3.82,3.82V23C293.62,18.05,286,18.05,286,23Z" transform="translate(-0.5 0.25)"/><path class="cls-2" d="M235.26,4.51a5.88,5.88,0,0,0-4.1-.44,4.82,4.82,0,0,0-2.25,1.27A3.43,3.43,0,0,0,228,6.76a3.82,3.82,0,0,0-.37,1.79,3.74,3.74,0,0,0,.53,1.93,2.78,2.78,0,0,0,1,1.07,3.63,3.63,0,0,0,3.34.69,2,2,0,0,1,.35-.09l-1,.14a10.3,10.3,0,0,0,2-.14A4.62,4.62,0,0,0,237,8.86a4,4,0,0,0-.39-3,3.82,3.82,0,0,0-5.22-1.38h0a4,4,0,0,0-1.75,2.28,1.72,1.72,0,0,1-.07.21l.39-.92a.94.94,0,0,1-.12.22l.6-.77-.1.09.78-.6a.41.41,0,0,1-.11.07l.92-.39a.61.61,0,0,1-.18.05l1-.14a3.42,3.42,0,0,1-.64,0h-.32a5.86,5.86,0,0,0-1.37.23l4.85,3.69a.67.67,0,0,1,0-.2l-.14,1V9.19l-.38.92a.38.38,0,0,1,.09-.15l-.6.78.08-.08-.77.59a.72.72,0,0,1,.21-.12l-.92.39a1.66,1.66,0,0,1,.45-.12l-1,.13a2.73,2.73,0,0,1,.7,0l-1-.14a1.28,1.28,0,0,1,.28.07l-.92-.39h0a4,4,0,0,0,2.95.38,3.82,3.82,0,0,0,.92-7Z" transform="translate(-0.5 0.25)"/><path class="cls-2" d="M230.2,4.34c-.9.29-1.85.39-2.74.74a6.32,6.32,0,0,0-2.35,1.4A4.57,4.57,0,0,0,224,10.7a3.73,3.73,0,0,0,2.68,2.64,3.88,3.88,0,0,0,3.72-1c-.61.43-.76.54-.44.34s.17-.11-.5.2a2,2,0,0,0,.46-.13c.35-.09.71-.15,1.06-.25a5.7,5.7,0,0,0,3.55-2.59,3.83,3.83,0,0,0-6.61-3.86c-.19.33-.08.18.34-.43l.55-.42c-.5.35.94-.3.36-.14l-1,.25A6.72,6.72,0,0,0,225,6.93l6.39,1.69a3.25,3.25,0,0,1-.83,3.18l-.61.46a2.21,2.21,0,0,1,.34-.18c-.52.43-.87.33-.35.18l.48-.14c.61-.15,1.23-.26,1.83-.45a3.83,3.83,0,0,0-2-7.38Z" transform="translate(-0.5 0.25)"/><path class="cls-2" d="M231.06,14.55a32,32,0,0,0,6.35-1.4A3.89,3.89,0,0,0,240.16,9a3.81,3.81,0,0,0-3.76-3.31,17.08,17.08,0,0,0-8.29,1.92,3.82,3.82,0,0,0,3.86,6.6h0q.3-.16.6-.3-.58.23.06,0a12.29,12.29,0,0,1,1.24-.36l.57-.11h.19c.48,0,1.15-.05,1.77-.05l-1-7.52A32.26,32.26,0,0,1,229,7.22c-2,.38-3.18,2.84-2.67,4.71a3.91,3.91,0,0,0,4.71,2.67Z" transform="translate(-0.5 0.25)"/><path class="cls-2" d="M236.78,13.57h0l-.78.59.15-.08-.91.38h.19l-1,.13a19.09,19.09,0,0,0,2.27-.16A4.26,4.26,0,0,0,240,10.24l-.14-1-.38-.91a3.79,3.79,0,0,0-1.83-1.57,3.83,3.83,0,0,0-4.18.79h0l.77-.6a.38.38,0,0,1-.15.09l.91-.38h-.19l1-.13a17.49,17.49,0,0,0-2.28.17,4.31,4.31,0,0,0-3.27,4.18,3.85,3.85,0,0,0,3.82,3.83,3.9,3.9,0,0,0,3.83-3.83V10.8l-.14,1v-.13l-.38.91a.21.21,0,0,1,.06-.1l-.6.78a.3.3,0,0,1,.08-.08l-.77.6a.21.21,0,0,1,.1-.06l-.91.39a1.1,1.1,0,0,1,.26-.06l-1,.13h1a4.77,4.77,0,0,0,3.28-1.32l-6.53-2.7v.07l.14-1v.13l.38-.92a.37.37,0,0,1-.05.11l.59-.78-.08.08.77-.6a.21.21,0,0,1-.1.06l.91-.39a1.1,1.1,0,0,1-.26.06l1-.13h-1a4.73,4.73,0,0,0-3.27,1.31,3.92,3.92,0,0,0-1.12,2.71,3.82,3.82,0,0,0,3.81,3.83h0A4,4,0,0,0,236.78,13.57Z" transform="translate(-0.5 0.25)"/><path class="cls-2" d="M213.47,23.91c3.37-2.95,6.31-6.34,10.31-8.57s1.24-8.11-3-7a18.68,18.68,0,0,0-8.19,4.91c-2,2.37-4.69,3.7-5.53,6.93-1.24,4.77,6.14,6.8,7.38,2,.17-.65,1.32-1.44,1.92-2A15.44,15.44,0,0,0,219.23,17L217,18.72c2-.83,3.79-2.51,5.87-3.06l-3-7c-4.51,2.55-8,6.38-11.82,9.76s1.72,8.65,5.41,5.41Z" transform="translate(-0.5 0.25)"/><path class="cls-2" d="M219.71,20.34c0-.08.09-.16.14-.24l-.59.77a2.42,2.42,0,0,1,.32-.32l-.77.6c.35-.26.74-.44,1.09-.7a5.48,5.48,0,0,0,2.31-3.11,3.9,3.9,0,0,0-1-3.73,3.82,3.82,0,0,0-3.72-1c-2.85.77-5.75,3.64-4.79,6.82a4,4,0,0,0,1.76,2.29,3.85,3.85,0,0,0,5.25-1.38,4,4,0,0,0,.38-2.95.38.38,0,0,1,0-.15l.13,1v-.16l-.13,1a1.05,1.05,0,0,1,.06-.24l-.38.92a1.52,1.52,0,0,1,.24-.41l-.6.78a3.52,3.52,0,0,1,.56-.53l-.78.6a4.7,4.7,0,0,1,.89-.52l-.91.39a3,3,0,0,1,.39-.13l-4.7-4.71a.84.84,0,0,1-.1.29l.39-.91c0,.08-.09.16-.14.24l.6-.77a2.42,2.42,0,0,1-.32.32l.78-.6c-.3.23-.64.39-.94.6a5.8,5.8,0,0,0-2,2,4,4,0,0,0-.39,3,3.85,3.85,0,0,0,7,1Z" transform="translate(-0.5 0.25)"/><path class="cls-2" d="M226.21,15.4H226l1-.14-1.54.2-.28,0a6.24,6.24,0,0,0-1.1.46,3.76,3.76,0,0,0-.92.72,4.28,4.28,0,0,0-.87,1.35,4.66,4.66,0,0,0-.37,1.65,6,6,0,0,0,.16,1.33,2.76,2.76,0,0,0,.66,1.32,2.88,2.88,0,0,0,1.08,1,4,4,0,0,0,2.94.38,5,5,0,0,0,1.77-.75A6.64,6.64,0,0,0,230.5,21,2.74,2.74,0,0,0,231,19.6a2.84,2.84,0,0,0-.07-1.53,3.84,3.84,0,0,0-4.7-2.67l-.92.39a3.91,3.91,0,0,0-1.37,1.37l-.09.13.6-.78a2.22,2.22,0,0,1-.37.38l.77-.6a1.67,1.67,0,0,1-.46.28l.91-.38a3.68,3.68,0,0,1-.47.15L229.49,19v-.08l.14,1a1.22,1.22,0,0,1,0-.27l-.14,1v-.15l-.38.91v-.08l-.59.78a.28.28,0,0,1,.09-.1l-.77.59.17-.09-.92.39a1.18,1.18,0,0,1,.37-.09l-1,.14c.58-.08,1.15-.12,1.72-.23a2.81,2.81,0,0,0,1.3-.68,2.88,2.88,0,0,0,1-1.08,2.74,2.74,0,0,0,.45-1.42,2.84,2.84,0,0,0-.07-1.53,3.87,3.87,0,0,0-1.76-2.28l-.91-.39a4,4,0,0,0-2,0Z" transform="translate(-0.5 0.25)"/><path class="cls-2" d="M210.52,18.1l-.15.2.6-.77A17.82,17.82,0,0,0,209.1,20a3.89,3.89,0,0,0,.3,4.25,3.64,3.64,0,0,0,1.53,1.18,4,4,0,0,0,2.49.19,5.06,5.06,0,0,0,1.24-.48,2.56,2.56,0,0,0,.35-.22A7,7,0,0,0,216.89,23a2.39,2.39,0,0,0,.21-.34,6.35,6.35,0,0,0,.48-1.18,4.63,4.63,0,0,0-.45-3.4,4,4,0,0,0-2.29-1.76A3.84,3.84,0,0,0,210.13,19a4,4,0,0,0,.39,2.95V22l-.39-.92a.24.24,0,0,1,0,.12l-.13-1a.74.74,0,0,1,0,.21l.14-1a1.71,1.71,0,0,1-.09.3l.39-.92a2.69,2.69,0,0,1-.28.46l.59-.77a2.59,2.59,0,0,1-.41.4l.78-.59a2.27,2.27,0,0,1-.48.27l.92-.38a1.05,1.05,0,0,1-.24.06l4.32,5.63a5.27,5.27,0,0,1,.4-.64l-.6.77c.54-.68,1.11-1.31,1.62-2a3.9,3.9,0,0,0,.38-2.95,3.84,3.84,0,0,0-4.66-2.73l-.91.39a3.75,3.75,0,0,0-1.37,1.37Z" transform="translate(-0.5 0.25)"/><path class="cls-2" d="M209.05,18.69a4.62,4.62,0,0,0-1.23.48,1.9,1.9,0,0,0-.39.23,6.68,6.68,0,0,0-1.89,2,5,5,0,0,0-.19,5.06,3.8,3.8,0,0,0,3.3,1.9,3.86,3.86,0,0,0,3.3-1.9l1.42-2.12A3.83,3.83,0,0,0,212,19.11h0a3.85,3.85,0,0,0-2.95-.38,4.13,4.13,0,0,0-2.27,1.73c-.47.71-.95,1.41-1.41,2.12H212V22.5l.39.92a.79.79,0,0,1-.06-.22l.14,1a1,1,0,0,1,0-.25l-.14,1a2.47,2.47,0,0,1,.11-.36l-.39.91a2.58,2.58,0,0,1,.32-.53l-.6.78a2.22,2.22,0,0,1,.37-.38l-.78.6a2.3,2.3,0,0,1,.43-.25l-.91.38.27-.07a3.77,3.77,0,0,0,.9-6.92h0a4.37,4.37,0,0,0-2.95-.38Z" transform="translate(-0.5 0.25)"/><path class="cls-2" d="M276.65,42.6c-.67-7.2-2.34-14.2-5.95-20.52-2.73-4.76-6.83-10.42-12.6-11.37a3.86,3.86,0,0,0-3.73,6.39c1.13,1.37,1.87,2.28,3.59,2.81,3.48,1.05,5.61-2.77,4.32-5.62a4.22,4.22,0,0,0-2.17-2.19l1.76,4.33.06-.32-5.62,2.29.21.22-1.13-2.71v.36l4.84-3.69H260a4,4,0,0,0-4.35,1.76v.05L260,12.63c-2.5-1-4.75-2.51-7.28-3.51-3.49-1.38-6.65,4.05-3.72,6.39,3.69,3,7.77,5.33,9.75,9.8l6.61-3.86C257.86,11.26,239.49,2.73,227.43,9.5h3.86L231,9.3c-3-2.18-6.19,1.4-5.63,4.32a4.4,4.4,0,0,0,2.18,2.72L225.78,12l-.17.42,2.68-2.67c-3,1.09-5.91,2.32-8.81,3.62-.76.34-4.78,3.13-4,3.07a3.89,3.89,0,0,0-3.83,3.95,3.74,3.74,0,0,0,.13.94v-1.1L213.54,18c-3.15,2-4.51,5.22-7.13,7.66-3.63,3.31,1.8,8.73,5.37,5.36a4.58,4.58,0,0,0,1.07-1.25c1.8-3.8-2.73-7.8-6-4.63-1.17,1.13-1.46,3-2.58,4l6.39,3.72c.64-1.83.87-3.45-.38-5.07V31.6a23,23,0,0,0,1.64-3c1.81-3.67-3-8.1-6-4.64s-3.84,7.46-5.44,11.56l7.52,1c.28-2.77,1.75-5.25,2.44-7.92a3.86,3.86,0,0,0-2.83-4.68,3.82,3.82,0,0,0-2.79.36l-.16.1L209,26.14l-.35-.72c-1.54-3.22-6-1.9-7,.92l-.56,1,7.13,1.93c.07-1.49.91-2.41.71-4-.43-3.25-5.34-5.83-7.13-1.93l-.33.64,6.39,3.72c.06-.31.14-.63.23-.94,1.09-4.16-4.8-6.75-7-2.94-4.3,7.45-5.83,16-5.69,24.5H203c-.33-3.28.28-7.77-3.51-9.1-2.37-.83-4.85,1.34-4.84,3.69,0,4-.23,7.68,1.46,11.33v-3.9c-2,4.31,1.39,9.61,3.64,13.27a43.61,43.61,0,0,0,11.37,12l-1.76-2.29c1.11,3.82,6.45,7,10,8.41,4.21,1.63,10.75.94,14.19-2.2,3.7-3.38,4.63-9.14,1.29-13a16.65,16.65,0,0,0-6.1-4.67c-2.84-1.17-4.45-.56-6.66-1.64-2.86-1.4-6.62.93-5.62,4.32a5,5,0,0,0,2.47,3.2l-1.89-3.3v.26l5.7-3.31c-3.14-1.44-5.43-2.78-7.1-5.91-2.12-4-7.9-1.16-7,3l.11.46.38-2.95-.1.24h6.61c-.92-2-2-4-4.47-4l3.69,4.84c.27-1.34-.36-2.16-.34-3.37l-7.52,1a11.71,11.71,0,0,0,1.11,2.38l-.39-3-.24.86a3.82,3.82,0,0,0,1,3.72h0a3.78,3.78,0,0,0,3.72,1,5.27,5.27,0,0,0,2.37-1.46l-6-.77a14.35,14.35,0,0,0,3.19,4.07c3.12,2.8,8.38-.77,6-4.64a18.88,18.88,0,0,1-1.37-2.06l-7.13,1.93c2.69,3.83,5.26,6.62,10.12,7.07,4.21.39,4.6-5.14,1.93-7.13a12.89,12.89,0,0,1-3.32-3.1l-5.24,5.23a14,14,0,0,0,2.55,1.1c3.28,1.08,5.89-2.83,4.33-5.62-1.35-2.4-3.06-4.31-3.62-7.08l-5.62,4.32a8.68,8.68,0,0,0,1.63.62,3.88,3.88,0,0,0,4.71-2.84,4,4,0,0,0,0-1.84,41.51,41.51,0,0,1-.72-6.08,40.1,40.1,0,0,0-.79-4c-.06,1.09.93-1.39,1.1-1.8a20,20,0,0,0,1.35-4l-5.62,2.28a4.28,4.28,0,0,0,5.87-.75c1.18-1.4,1.84-3.41,3-4.92s2.32-2.9,3.43-4.39c1.8-2.45-.66-5.71-3.3-5.76a4.55,4.55,0,0,0-2.73.72l5.24,1.37-.16-.2-.6,4.64c1.3-1.59,2.27-3.28,1.46-5.36a3.89,3.89,0,0,0-6.4-1.69c-1.12.92-2.22,1.82-3.29,2.81L220,25.74a19.6,19.6,0,0,1,11.26-7.4c4.79-1.1,2.76-8.48-2-7.38a5.32,5.32,0,0,0-1.41.47c-2.1.81-3.83,3.41-2.28,5.62,1.23,1.76,2.52,2.19,4.6,2.3l-3.69-4.84v.07l2.68-2.68a17.83,17.83,0,0,0-7,4.27c-3.15,3.09.85,8.09,4.63,6a14.31,14.31,0,0,1,3.56-1.5L225.68,16l.59-.9a3.8,3.8,0,0,0-1,3.73l.16.39A4,4,0,0,0,229.12,22c1.81-.07,3.69-1.07,5.42-.95l-1-7.52c-11.93,4.4-21.79,10.62-23.51,24.14-.56,4.46,6.25,4.91,7.52,1,2.49-7.61,6.35-12,13.7-15.11,8-3.41,17.25-1.12,21.88,6.38,4.14,6.7,5.46,15.64,2.1,22.94-3,6.59-8.55,10.88-14.16,15.09-3.14,2.36-1.5,8.62,3,7,.49-.17,1-.35,1.46-.55l-3-.38.66.31c1.4.67,3.54.78,4.64-.6l1.05-.76-1.93-7.13a25.39,25.39,0,0,0-5.47,3.89c-2.75,2.58.09,7.56,3.72,6.4,2.88-.93,5-3,7.76-4l-2.95-7c-2.37,1.55-4.62,3.26-7.06,4.71-3.09,1.83-2,7.42,1.94,7.13a18.48,18.48,0,0,0,10.39-4.28l-4.64-6c-3.06,2.7-6.69,4.59-10,6.92-2.82,2-2.18,7.47,1.93,7.13A25,25,0,0,0,248,79.22l-3.72-6.4L244,73c-1.58.71-2.11,2.8-1.76,4.32l.09.43a3.86,3.86,0,0,0,4.79,2.64A3.64,3.64,0,0,0,248,80c2.34-1.27,4.77-2.37,7.05-3.76l-4.63-6c-1.38,1.4-3.3,2-4.87,3.16-3.27,2.35-1.47,8.51,2.95,7,3.38-1.16,6.05-3.11,9.14-4.85l-5.76-3.31,0,.53c.13,1.25.62,2.75,1.9,3.31l.4.17c3,1.32,6.42-.84,5.63-4.32a5.13,5.13,0,0,0-1.46-2.59L259,74l.23-.32-3.31,1.89c3.35,0,4.51-2.23,7.11-3.82l-4.64-6c-1.71,2-4,3.31-5.3,5.71-2,3.74,2.9,7.86,6,4.64a5.13,5.13,0,0,1,1-.92l-2.68,1.18h.39l-2.71-6.53a42.82,42.82,0,0,1-9.8,6,3.84,3.84,0,0,0-1.76,4.33,4.91,4.91,0,0,0,1.46,2.4l1.69-6.4a26,26,0,0,0-4.91,1.8c-3.24,1.68-1.88,7.51,1.93,7.13,10.69-1.09,19.37-7,25.62-15.54a41.3,41.3,0,0,0,7.35-26.84c-.47-4.86-8.13-4.91-7.66,0,1.46,15.07-9.12,33.08-25.31,34.72l1.93,7.13a28.35,28.35,0,0,1,3.08-1c2.57-.75,4-4.48,1.69-6.39l.51,1-1.76,4.19a50.18,50.18,0,0,0,11.36-7.17c2.63-2.09.4-6.65-2.71-6.53a5.71,5.71,0,0,0-4.11,2.06l6,4.63c.88-1.65,2.89-2.71,4.1-4.16,2.63-3.16-.69-8.42-4.64-6-1.09.67-2.6,2.42-3.24,2.78-1.41.79-2.43.66-3.53,2.22a3.86,3.86,0,0,0,.6,4.64l-.53-.84,5.62-4.32-.41-.18,1.89,3.3,0-.53c-.28-2.83-3-4.83-5.76-3.3-2.44,1.38-4.63,3.16-7.31,4.08l3,7c2.16-1.55,4.52-2.43,6.42-4.35,3-3.06-.86-8.3-4.64-6-2.29,1.38-4.71,2.48-7.06,3.75l5.62,2.29-.09-.43-1.76,4.32a4.9,4.9,0,0,0,1.81-1.34c2.36-2.71.16-7.61-3.72-6.39a23.79,23.79,0,0,1-3.45,1.27l1.94,7.13c3.88-2.71,8-5,11.58-8.12,3.2-2.83-1.18-8.68-4.64-6-2,1.54-3.89,3-6.53,3.23l1.94,7.08c2.43-1.44,4.68-3.16,7.05-4.7,3.43-2.23,1.31-8.63-3-7-2.74,1.06-5,3.11-7.75,4l3.72,6.39a17.29,17.29,0,0,1,3.93-2.68c3.42-1.83,1.76-7.09-1.93-7.13a7.81,7.81,0,0,0-6.46,3l4.64-.6a5.6,5.6,0,0,0-5.07-.15l2.95,7c7.74-5.81,15.19-11.91,18.42-21.5C266.71,43,264,31.2,257.5,23s-18.72-10.61-28.3-6.78c-4.65,1.87-8.94,4-12.31,7.76s-5.23,8-6.76,12.71l7.52,1c1.22-9.61,9.71-13.74,17.88-16.76a3.84,3.84,0,0,0-1-7.51c-2-.14-3.5.88-5.42.94l3.67,2.83-.16-.39-1,3.73A5.26,5.26,0,0,0,233,18a3.87,3.87,0,0,0-4.7-4.71,22.45,22.45,0,0,0-5.39,2.28l4.64,6c2-1.94,5.37-2.18,6.29-5,.79-2.49-1.32-4.71-3.69-4.84h-.08l2.28,1.76-.2-.28-2.28,5.62a5.32,5.32,0,0,1,1.41-.47c4.79-1.1,2.76-8.48-2-7.38a26,26,0,0,0-14.64,9.42c-3,3.79,1.7,8.85,5.42,5.41,1.06-1,2.17-1.89,3.28-2.81L217,21.34l.21.54.38-2.95-.08.33c-1,1.19-1.67,3.22-.6,4.64l.16.2c1.2,1.58,3.33,2.61,5.23,1.37l-1.13.32L217.78,20c-2.19,3-4.59,5.53-6.12,8.93L214,27.15l-.47.11,3,.39-.47-.34c-1.91-1.4-5.19,0-5.62,2.28-.39,2-1.63,3.26-1.55,5.48l1.12-2.7a7.73,7.73,0,0,0-.24,10.35L208.6,40c-.34,3.22.3,6.33.85,9.48l4.71-4.7.2.15c-3.09-1.37-6.32.87-5.63,4.32s2.7,5.9,4.39,8.91l4.32-5.62-.73-.33c-3.1-1.72-7.61,2-5.23,5.24a27.22,27.22,0,0,0,6.05,5.88l1.93-7.13c-1.53-.15-2.73-2.17-3.51-3.29-2-2.81-7.44-2.19-7.13,1.94.18,2.4,1.16,3.89,2.41,5.93l6-4.64a5.51,5.51,0,0,1-2-2.52c-1.1-2-4.45-2.65-6-.78l1-.51,3.72,1h0l1,3.73c.52-1.86.2-2.71-.48-4.37-1.54-3.81-7.43-3.59-7.51,1A8.66,8.66,0,0,0,208,58l-.39-3h0a3.87,3.87,0,0,0,2.78,4.72,3.91,3.91,0,0,0,.91.12h0L208,57.9A10.76,10.76,0,0,1,209.09,60c1.15,2.45,5.5,2.56,6.61,0a5.24,5.24,0,0,0,.38-3.65l-7,3c2.24,4.19,5.59,6.71,9.85,8.66,2.58,1.19,5.73-.19,5.76-3.3a4.29,4.29,0,0,0-2.44-3.89L224,63.12l-.17-.59-5.62,4.32a18.27,18.27,0,0,0,5.79,2c3,.42,4.4,1.7,6.37,4.18l-1.11-2.69c.37,5.85-6.66,4.78-10,2.41-.65-.46-1.27-1-1.91-1.43-2.85-2.15.5.71-.74-.56-1.5-1.54-3.13-3-4.75-4.48a33.12,33.12,0,0,1-8.41-12.58l-.67.48a2.8,2.8,0,0,0,.45-1.43c-.16-.78-.27-1.63-.45-2.44a33.29,33.29,0,0,1-.42-7.46l-4.84,3.69.15.05L195,43.92a35.22,35.22,0,0,1,.42,4.34c.49,4.79,7.74,5,7.65,0-.12-7.23,1-14.32,4.65-20.64l-7-3c-.09.31-.17.62-.23.94-.75,3.52,3.66,6.7,6.4,3.72a7.89,7.89,0,0,0,1.52-2.19l-7.13-1.93c.15,1.15-.64,2.76-.7,4-.19,4,5.14,4.87,7.13,1.93a11.3,11.3,0,0,0,1.34-2.75l-7,.91.35.73a3.88,3.88,0,0,0,4.32,1.75,7,7,0,0,0,2-.87l-5.64-4.32c-.88,3.42-2.35,6.38-2.71,10-.48,4.62,6.07,4.7,7.51,1,1-2.67,1.55-6,3.48-8.19l-6-4.64a25,25,0,0,1-1.65,3.06,3.72,3.72,0,0,0,0,3.86l.45.59-.38-3a8.17,8.17,0,0,1-.46,1.53c-1.35,3.86,3.76,6.08,6.4,3.73,1.29-1.15,1.46-2.91,2.58-4l-6-4.64.13-.3c-3.65,3.38,1.78,8.8,5.35,5.43,2-1.86,3.81-4.42,5.59-6.46,1.49-1.71,2.39-2.74,1.75-5.25l-3.69,4.84c3.36-.28,5-2.8,7.9-4.11,3.39-1.53,8.35-2.18,9.82-5.95.63-1.62-.44-3.45-1.76-4.32l-.4-.27,1.79,2.29v-.21l-5.62,4.33.28.2a3.76,3.76,0,0,0,3.86,0c8-4.51,22.49,2.46,27.45,9.2a3.83,3.83,0,0,0,6.61-3.86c-2.28-5.17-6.69-7.93-11-11.35l-3.72,6.4c2.5,1,4.78,2.48,7.28,3.51,1.6.66,3.47-.46,4.32-1.76v-.05l-4.32,1.76.22.05a3.88,3.88,0,0,0,4.72-2.82,4.34,4.34,0,0,0,.12-.87c.16-2.16-1.28-3.33-2.85-4.48-1.94-1.41-5.14,0-5.62,2.29l-.06.31a3.9,3.9,0,0,0,1.76,4.32l-.58-.56L260,12.53l-.6-.18,2.29,1.75c-.63-.81-1.25-1.62-1.9-2.41L256,18.09c4,.65,6.62,5.3,8.35,8.44A40.77,40.77,0,0,1,269,42.6c.45,4.86,8.11,4.91,7.66,0Z" transform="translate(-0.5 0.25)"/><path class="cls-2" d="M251.78,69.52c.15-.14.29-.28.43-.43l-.77.6c.14-.1.27-.21.4-.32a4,4,0,0,0,.41-.31,4.24,4.24,0,0,0,1.13-2.72l-.14-1a2.81,2.81,0,0,0-.68-1.3,1.88,1.88,0,0,0-.69-.68,2.83,2.83,0,0,0-1.3-.69l-1-.14a3.86,3.86,0,0,0-1.93.53,3.94,3.94,0,0,0-1.08.77l-.07.07-.6.78h0a3.27,3.27,0,0,0-.45,1.09,2.91,2.91,0,0,0-.07,1.52,2.82,2.82,0,0,0,.46,1.43,2.86,2.86,0,0,0,1,1.07,2.77,2.77,0,0,0,1.3.68l1,.14a3.85,3.85,0,0,0,1.93-.52l.78-.6a3.89,3.89,0,0,0,1-1.69v-.11l-.38.92a.24.24,0,0,1,.06-.11l-.6.77.09-.08-.77.6a.83.83,0,0,1,.29-.16l-4.64-6h0l.77-.6a6.18,6.18,0,0,0-.85.68l-.13.13-.25.24a2.94,2.94,0,0,0-.85,1.26,3.43,3.43,0,0,0,0,3,3,3,0,0,0,.79,1.23l.78.6a3.85,3.85,0,0,0,1.93.52l1-.14a3.89,3.89,0,0,0,1.69-1Z" transform="translate(-0.5 0.25)"/><path class="cls-2" d="M257.86,10h-.17l.91.39h0L260,11.76h0l.38.91h0l.14,1v-.08a2.89,2.89,0,0,0-.33-1.47,2.78,2.78,0,0,0-.79-1.23,4,4,0,0,0-2.71-1.12h-.47l-1,.13a2.83,2.83,0,0,0-1.3.69,3.6,3.6,0,0,0-1.37,2c-.09.42-.12.84-.18,1.26l.14-1a.21.21,0,0,1,0,.11l.39-.92h0l.59-.78h0l.78-.6h-.05l.91-.38H255l4.74,3.63a8.6,8.6,0,0,0-.17-1.24,4.29,4.29,0,0,0-1.06-1.85,4.16,4.16,0,0,0-1.81-1.06,4.63,4.63,0,0,0-2.28,0l-.91.39a3,3,0,0,0-1.08,1A1.78,1.78,0,0,0,252,12a2.89,2.89,0,0,0-.33,1.47,4.2,4.2,0,0,0,1.13,3.2,4.34,4.34,0,0,0,1.4.91,2.8,2.8,0,0,0,.57.22l1,.14h.08a5.36,5.36,0,0,0,2.45-.65,2,2,0,0,0,.25-.14,5.56,5.56,0,0,0,1-.75,4,4,0,0,0,1.12-2.71A3.92,3.92,0,0,0,259.53,11a3.86,3.86,0,0,0-2.71-1.12A4,4,0,0,0,254.11,11l-.11.11.77-.6a1.31,1.31,0,0,1-.36.21l.91-.38a2,2,0,0,1-.33.09l1-.13h-.21l1,.14h-.12l.91.39-.1-.06.77.6-.05-.06.59.78-.06-.11.38.91v-.15l.13,1v-.26l-2.81,3.69h.09l-1,.14h.13l-1-.14h0l-.92-.39h0l-.78-.59a.08.08,0,0,1,.07.06l-.6-.77h0l-.39-.91a.66.66,0,0,1,.06.2l-.14-1v.11a3.89,3.89,0,0,0,.52,1.94,3,3,0,0,0,1,1.07,2.81,2.81,0,0,0,1.3.68,4,4,0,0,0,3.79-1,3.88,3.88,0,0,0,.66-.85,5.23,5.23,0,0,0,.57-2.23l-.14,1v-.06L256,17.22h.47l-3.64-3.77a1,1,0,0,0,.06.58,5.54,5.54,0,0,0,.07.57,4.19,4.19,0,0,0,1,1.73,4,4,0,0,0,1.87,1,2.94,2.94,0,0,0,1.53.07,2.75,2.75,0,0,0,1.42-.46,3.81,3.81,0,0,0,1.38-5.21v0l-.59-.78a3.89,3.89,0,0,0-1.69-1Z" transform="translate(-0.5 0.25)"/><path class="cls-2" d="M212.1,12.11a.76.76,0,0,1-.33.11l1-.13h-.24l1,.14a4.46,4.46,0,0,0-3.26.42,4.09,4.09,0,0,0-1.82,4.43v-2c-.1.51.48-1.21.16-.44-.09.22.69-.76.34-.45l.59-.45c.76-.25,1-.34.61-.26l1-.14H211l1,.14c.71.37.9.45.57.23a3.83,3.83,0,0,0-2.94-.39,4.5,4.5,0,0,0-2.29,1.76,6,6,0,0,0-.85,5.07,3.89,3.89,0,0,0,4.71,2.67,5.91,5.91,0,0,0,3.69-2.92c.18-.33.33-.69.5-1s.2-.32.29-.49c.18-.35-.59.76-.35.46s.68-.41-.4.3a3.83,3.83,0,0,0-3.86-6.61,7.09,7.09,0,0,0-2.4,2.78c-.15.32-.34.62-.49.93.47-.58.59-.73.35-.45s-.11.15.47-.33c-.78.35.88-.26.25-.11l4.7,2.67-.09-.41.14,1a2.26,2.26,0,0,1,0-.52l-.13,1a1.59,1.59,0,0,1,.06-.3c-.3.64-.38.82-.23.55a3.53,3.53,0,0,1,.35-.52l-5.24,1.37a4.48,4.48,0,0,0,5.61-.76,4.93,4.93,0,0,0,1.43-4.5l-.39,2.95.07-.09-1.37,1.37-.78.32-1,.14h.08l-1-.14a4.6,4.6,0,0,0,2.7-.09,4.24,4.24,0,0,0,2.28-1.75,3.94,3.94,0,0,0,.39-3,3.89,3.89,0,0,0-1.76-2.29,3.72,3.72,0,0,0-3-.39Z" transform="translate(-0.5 0.25)"/><path class="cls-2" d="M252,68.89l.42-.42-.77.6a5,5,0,0,0,.81-.64,2.78,2.78,0,0,0,.79-1.23,2.89,2.89,0,0,0,.33-1.47l-.13-1a2.83,2.83,0,0,0-.69-1.3,1.9,1.9,0,0,0-.69-.69,2.78,2.78,0,0,0-1.3-.69l-1-.13a3.89,3.89,0,0,0-1.94.52,4.54,4.54,0,0,0-1.06.78,4.2,4.2,0,0,0-1.15,2,2.94,2.94,0,0,0-.07,1.53,2.74,2.74,0,0,0,.45,1.42,2.93,2.93,0,0,0,1,1.07,2.83,2.83,0,0,0,1.3.69l1,.13a3.83,3.83,0,0,0,1.93-.52l.77-.6a3.74,3.74,0,0,0,1-1.69v-.1l-.39.92.06-.11-.59.78.09-.1-.77.6a1.2,1.2,0,0,1,.27-.16l-4.64-6h0l.77-.59a6.32,6.32,0,0,0-1,.79l-.24.24a3,3,0,0,0-.79,1.23,3,3,0,0,0-.33,1.48,4.25,4.25,0,0,0,1.12,2.7l.78.6a3.63,3.63,0,0,0,1.93.52l1-.13a3.71,3.71,0,0,0,1.68-1Z" transform="translate(-0.5 0.25)"/><path class="cls-2" d="M216,40c2.87-7.57,8.71-12.3,14.91-17,3.15-2.36,1.51-8.58-2.95-7-.49.16-1,.35-1.46.55l3,.38-.66-.31c-1.4-.67-3.54-.78-4.64.6l-1,.76,1.93,7.13a25.33,25.33,0,0,0,5.38-3.81c2.74-2.58-.09-7.58-3.72-6.4-2.88.93-5,3-7.75,4l2.95,7c2.36-1.55,4.61-3.26,7-4.71,3.08-1.84,2-7.44-1.93-7.13a18.71,18.71,0,0,0-10.32,4.24l4.63,6c3.07-2.72,6.7-4.6,10.05-6.93,2.82-2,2.18-7.47-1.93-7.13-2.05.17-3.56,1-5.5,1.55l3.73,6.4.26-.16c1.57-.71,2.12-2.78,1.76-4.32l-.1-.43a3.85,3.85,0,0,0-4.78-2.63,3.64,3.64,0,0,0-.84.35c-2.34,1.27-4.77,2.37-7.05,3.76l4.64,6c1.37-1.4,3.29-2,4.86-3.17,3.26-2.34,1.47-8.51-2.95-7-3.38,1.17-6,3.12-9.14,4.86l5.76,3.3-.06-.53a4.09,4.09,0,0,0-2.81-3.69l-.41-.18c-2.85-1.17-5.34,2.17-4.71,4.71a5.24,5.24,0,0,0,1.45,2.54L213,17l-.26.34,3.3-1.9c-3.34,0-4.51,2.22-7.1,3.82l4.63,6c1.71-2,4-3.31,5.31-5.71,2-3.74-2.91-7.86-6-4.64a4.86,4.86,0,0,1-1,.92l2.71-1.12h-.39l2.68,6.63a43.4,43.4,0,0,1,9.8-6A3.81,3.81,0,0,0,228.48,11,5.28,5.28,0,0,0,227,8.63L225.34,15a25.26,25.26,0,0,0,4.9-1.8c3.24-1.69,1.89-7.51-1.93-7.13a34,34,0,0,0-22.16,11.39,45.56,45.56,0,0,0-6.64,10.06c-1.78,3.56-2.24,6.63-3.29,10.47A3.87,3.87,0,0,0,199,42.74a3.72,3.72,0,0,0,.93.13h12.44c4.93,0,4.94-7.66,0-7.66H199.91l3.69,4.85c.46-1.67.56-3.37,1-5a16,16,0,0,1,1.67-3.43,35.5,35.5,0,0,1,5.33-8.7c4.07-4.66,10.48-8.52,16.75-9.15l-1.93-7.13a22.14,22.14,0,0,1-3.08,1c-2.61.75-3.93,4.45-1.69,6.39l-.51-1,1.76-4.32a51.76,51.76,0,0,0-11.36,7.18c-2.66,2.11-.38,6.61,2.71,6.54a5.73,5.73,0,0,0,4.08-2.1l-6-4.64c-.89,1.65-2.9,2.71-4.11,4.16-2.63,3.15.7,8.44,4.64,6,1.09-.67,2.59-2.41,3.24-2.77,1.42-.79,2.44-.66,3.53-2.23a3.84,3.84,0,0,0-.6-4.63l.52.84-4.71,4.7.42.18-2.82-3.61.06.53c.31,2.82,3,4.84,5.76,3.3,2.44-1.37,4.63-3.16,7.31-4.08l-2.95-7c-2.15,1.55-4.52,2.44-6.42,4.36-3,3.05.87,8.31,4.64,6,2.28-1.39,4.71-2.49,7.06-3.77l-5.63-2.28.1.43,1.76-4.32a4.81,4.81,0,0,0-1.81,1.35c-2.34,2.71-.18,7.62,3.72,6.39A25.2,25.2,0,0,1,229.5,18l-1.93-7.13c-3.9,2.71-8,5-11.6,8.12-3.2,2.83,1.17,8.69,4.64,6,2-1.53,3.89-3,6.53-3.24l-1.94-7.13c-2.43,1.45-4.67,3.16-7,4.71-3.42,2.23-1.31,8.63,3,7,2.74-1.05,5-3.1,7.75-4l-3.72-6.4a17.06,17.06,0,0,1-3.93,2.7c-3.42,1.84-1.77,7.09,1.93,7.13a7.8,7.8,0,0,0,6.46-3l-4.63.6a5.63,5.63,0,0,0,5.07.15l-2.95-7c-7.94,6-14.78,11.9-18.43,21.52C206.92,42.61,214.31,44.6,216,40Z" transform="translate(-0.5 0.25)"/><polygon class="cls-3" points="7.85 6.71 7.85 18.89 37.91 18.89 5.44 59.99 5.44 71 57.41 71 57.41 58.64 23.92 58.64 56.51 17.72 56.51 6.71 7.85 6.71"/><path class="cls-3" d="M74.27,49.34l-.14,2.25a10.91,10.91,0,0,0,2.48,7.31,8.34,8.34,0,0,0,6.76,2.93,9,9,0,0,0,5.85-2.14,6.6,6.6,0,0,0,2.61-5.35l12.7.91c0,1.19-.8,3.12-2.36,5.81A23,23,0,0,1,95,68.37q-4.8,3.27-12.1,3.27a24.69,24.69,0,0,1-12.36-3,20.71,20.71,0,0,1-8.24-8.53,26.37,26.37,0,0,1-2.91-12.6,29.56,29.56,0,0,1,2.72-12.86,21.58,21.58,0,0,1,7.94-9.09,22.52,22.52,0,0,1,12.38-3.33,23.38,23.38,0,0,1,9.94,2.19A19.66,19.66,0,0,1,100,30.54q4.74,6.85,4.74,18.8Zm16.84-8.19q-.54-10-8-10-8.14,0-9,10Z" transform="translate(-0.5 0.25)"/><path class="cls-3" d="M121.91,23.1v8h.19a16,16,0,0,1,5.34-6.76,14.72,14.72,0,0,1,8.34-2.1c5.32,0,9.24,1.72,11.79,5.18,1.79,2.38,2.67,7,2.67,13.86V70.75H136.39V45.14c0-4.11-.39-7.13-1.15-9.09s-2.48-3-5.11-3a6.11,6.11,0,0,0-5.82,3.56,18.47,18.47,0,0,0-1.63,8.48V70.75H108.83V23.1Z" transform="translate(-0.5 0.25)"/><path class="cls-3" d="M183.63,37.39Q182,31,174.39,31c-4.75,0-7.12,1.4-7.12,4.18,0,1.89,1.61,3.16,4.84,3.79s6.69,1.26,10.4,1.87a19.47,19.47,0,0,1,9.45,4.1c2.59,2.13,3.88,5.61,3.88,10.48a14.69,14.69,0,0,1-6.4,12.37q-5.62,3.87-14.87,3.88a28.48,28.48,0,0,1-14.08-3.27q-5.87-3.28-7.65-10.73l11.88-1.82q1.4,6.45,10.58,6.44a15.32,15.32,0,0,0,5.6-1c1.82-.71,2.73-1.84,2.73-3.41,0-2.28-1.79-3.63-5.35-4C171.75,53,167,52.06,164.15,51a13.71,13.71,0,0,1-6.82-4.9,12.9,12.9,0,0,1-2.55-8q0-8.19,5.89-12.06c3.92-2.58,8.77-3.86,14.5-3.86q14.19,0,18.76,12.35Z" transform="translate(-0.5 0.25)"/><path class="cls-4" d="M219.32,52V38.34H225a10.19,10.19,0,0,1,3.11.36A3.13,3.13,0,0,1,229.64,40a4,4,0,0,1,.57,2.14,3.73,3.73,0,0,1-.88,2.54A4.17,4.17,0,0,1,226.69,46a6.35,6.35,0,0,1,1.44,1.14,13.78,13.78,0,0,1,1.54,2.25L231.29,52h-3.21l-2-3a17.63,17.63,0,0,0-1.42-2,1.92,1.92,0,0,0-.8-.58,4.38,4.38,0,0,0-1.35-.15H222V52ZM222,44.13h2a10.91,10.91,0,0,0,2.42-.16,1.62,1.62,0,0,0,.76-.58,1.86,1.86,0,0,0,.27-1,1.61,1.61,0,0,0-.37-1.11,1.5,1.5,0,0,0-1-.53c-.22,0-.87,0-2,0H222Z" transform="translate(-0.5 0.25)"/><path class="cls-4" d="M244.35,50.34l-1.57,2a8.84,8.84,0,0,1-2.17-1.57,5.45,5.45,0,0,1-1.73,1.11,5.87,5.87,0,0,1-2.16.35A4.75,4.75,0,0,1,233,50.8a3.75,3.75,0,0,1-1-2.55,3.88,3.88,0,0,1,.76-2.35A6.31,6.31,0,0,1,235,44.08a8,8,0,0,1-1-1.57,3.34,3.34,0,0,1-.35-1.42,2.7,2.7,0,0,1,1-2.09,4,4,0,0,1,2.76-.86,3.84,3.84,0,0,1,2.7.89,2.92,2.92,0,0,1,1,2.21,2.82,2.82,0,0,1-.48,1.57,6.69,6.69,0,0,1-1.95,1.68l1.86,2.5a5.73,5.73,0,0,0,.55-1.55l2.32.54a17,17,0,0,1-.59,1.83,4.27,4.27,0,0,1-.56,1,9.49,9.49,0,0,0,1.11.9,6.53,6.53,0,0,0,1,.64m-7.95-4.57a3.38,3.38,0,0,0-1.32,1.11,2.32,2.32,0,0,0-.43,1.3,1.82,1.82,0,0,0,.54,1.38,2,2,0,0,0,1.45.54,2.83,2.83,0,0,0,1.15-.25,4.63,4.63,0,0,0,1.21-.8Zm1-2.83.7-.53a1.66,1.66,0,0,0,.75-1.21,1.18,1.18,0,0,0-.36-.85,1.35,1.35,0,0,0-1-.35,1.42,1.42,0,0,0-1,.3,1,1,0,0,0-.35.73,2,2,0,0,0,.58,1.17Z" transform="translate(-0.5 0.25)"/><path class="cls-4" d="M245.78,38.34h5a9.38,9.38,0,0,1,2.53.26,4.42,4.42,0,0,1,2,1.25,6.11,6.11,0,0,1,1.27,2.21,10.31,10.31,0,0,1,.44,3.22,9.21,9.21,0,0,1-.41,2.9,6,6,0,0,1-1.43,2.4,4.78,4.78,0,0,1-1.89,1.09,8,8,0,0,1-2.38.29h-5.13Zm2.68,2.3v9h2a7.51,7.51,0,0,0,1.64-.12,2.42,2.42,0,0,0,1.07-.57,2.92,2.92,0,0,0,.72-1.31,9.17,9.17,0,0,0,.26-2.5,8.63,8.63,0,0,0-.26-2.43,3.26,3.26,0,0,0-.77-1.32,2.55,2.55,0,0,0-1.24-.64,12.56,12.56,0,0,0-2.21-.13Z" transform="translate(-0.5 0.25)"/><path class="cls-3" d="M290.55,23.1V32h.29q2.67-9.81,10.14-9.8l2.36.14V36.23c-4.76,0-7.9,1.45-9.45,4.35s-2.33,6.91-2.33,12V70.75H277.78V23.1Z" transform="translate(-0.5 0.25)"/><path class="cls-5" d="M233.93,7.9c-.25-.15-2-.26-1.88.71.88-.35,1.6.39,1.88-.71" transform="translate(-0.5 0.25)"/><path class="cls-5" d="M231.78,8.13c-1.19.4-3.8.61-3.54,1.65.84-.88,3-.48,3.54-1.65" transform="translate(-0.5 0.25)"/><path class="cls-5" d="M230.63,11A39.92,39.92,0,0,0,237,9.55a12.53,12.53,0,0,0-6.38,1.4" transform="translate(-0.5 0.25)"/><path class="cls-5" d="M234.65,11c.42-.5,2.12.25,2.11-.7-.42.51-2.13-.25-2.11.7" transform="translate(-0.5 0.25)"/><path class="cls-5" d="M211.31,21.34c2.76-2.38,6.77-6.86,11.07-9.19-2.47.52-3.69,2.28-5.89,3.07-1.32,2.28-4.77,3.71-5.18,6.12" transform="translate(-0.5 0.25)"/><path class="cls-5" d="M217,18.5c.47-1,1.88-.95,2.12-2.12-1,.25-2.41,1.34-2.12,2.12" transform="translate(-0.5 0.25)"/><path class="cls-5" d="M227.78,19.21c-.66.13-1.6,0-1.41.94a2.17,2.17,0,0,0,1.41-.94" transform="translate(-0.5 0.25)"/><path class="cls-5" d="M214.37,20.15A17.27,17.27,0,0,0,213,22c.82-.13,1.8-1.35,1.42-1.89" transform="translate(-0.5 0.25)"/><path class="cls-5" d="M210.61,22.5c-.92.13-1.81,1.51-1.42,2.13.46-.71,1-1.41,1.42-2.13" transform="translate(-0.5 0.25)"/><path class="cls-6" d="M273.53,42.78c-.88-11.49-5.09-19.78-10.84-25.93-2-.25-3.3-2.51-5-2.35.76.41.59,1.2,1.31,1.64a4.18,4.18,0,0,0,.6.19c.24-.76-1.44-.7-.74-1.13.33.25,1.41.94,1,1.18l-.22-.05v.05a1.51,1.51,0,0,1-.57-.24c-2.08-.74-4.36-2.53-6.74-3.28,4.3,3.57,8.54,5.62,10.38,10.6a6,6,0,0,0-2.14-2.12c-.76-.52-1.14-1.52-1.9-2.12a37.71,37.71,0,0,0-17.89-7.78c-3.91-.62-8.78,0-10.85,1.42,0-.38-.68-.18-.23,0s.5.35.23.69c-3.62,1.27-7.8,3.18-10.6,4.48-.46.43-2,2.73-3.29,2.36,0,.64.39.47,0,.94-2.19.94-4.18,4.84-5.93,6.65a.65.65,0,0,1-.45.42,2.55,2.55,0,0,0,.45-.42h0c-1.62,1-.84,3-2.6,4,.14-.73,1-1.68,0-2.12a22.74,22.74,0,0,0,1.66-3.07c-2.47,2.33-3,6.56-4.47,9.9.13-3.7,1.94-5.74,2.58-9-1,.41-1,1.06-1.41-.23a4.24,4.24,0,0,1-1,1.88c-.35-1.77,1.37-2.71.71-4-.34.45-.34,1.24-.93,1.42-.06-.44.26-.52.22-.94-3.49,5.72-5.48,13.88-5.18,22.63-.19-1.42-.33-6-.7-5.42.07,3.36-.4,7.3.94,9.42-.08.32-.34.46-.24.95A36.62,36.62,0,0,0,213.6,72.49c0,.58.37.73.47,1.17,3.67,2,7.37,7.1,13.19,4.72,4,.22,7-3.31,6.37-7.79-2.06-2.73-4.57-5.17-8.26-5.65-1.2,1.08-3.51-.69-4.7-1.17-.32.8,1.29.87.71,1.17-3.75-1.66-6.65-3.4-8.5-7.3-.08.4.36.6,0,.7a11.22,11.22,0,0,0-1.1-2.12h0a2.81,2.81,0,0,1-.47-2.33c.37,1.76,1.11.87.47,2.33h0c.43,0,.45-.33.68-.48a8.18,8.18,0,0,0,2.6,3.31c-.76-1.46-2.18-2.78-1.9-4,1.62,2.29,3.62,5.29,6.87,5.18-1.76-1.32-3.57-2.55-4.72-4.49.34.46,1.15.43,1.65.71-1.32-2.67-3.58-4.42-4-8,.32,0,.34.3.72.23-.42-2.51-1.21-5.86-.72-8.48-1.18-.7-.91-4.43.24-5-.46-1.86,1.39-2.44,1.42-4.47.48.13.46.7.94.23,1.38-3.64,4.08-6,6.13-8.95-.54-.33-.88.61-.94,0,.27-.29,1.07-1.25.47-1.65-.84.76-2.22,1.7-3.3,2.82a22,22,0,0,1,12.47-8.36,3.89,3.89,0,0,1,.49-.12l-.49.12a6,6,0,0,0-.92.35c-.2.55,1.87.32,1.28.48a12.21,12.21,0,0,0-5.3,3.3,13.86,13.86,0,0,1,4.48-1.9c.13.75-.8.63-.23,1.19,2.24.27,3.74-1.44,5.43-.95-10.06,3.65-19.59,8.4-20.75,20.5,2.19-7,4.3-10.06,9.19-14.36,3.9-1.7,8.3-4.78,13.91-5.19,6.15-.45,10.92,1.78,15.08,4.23a30.24,30.24,0,0,1,9,23.58C261,55.5,254.88,62,250.21,66.6c-1.69,2.14-4.48,3.16-6.57,4.91,1.06-.18,1.35-1,2.13-.24a3.9,3.9,0,0,1,3.77-1.88,16.58,16.58,0,0,0-4.76,3.32c3.07-.7,5.42-3.36,7.77-4-2.44,1.49-4.52,3.33-7.07,4.72,3.26.1,6.3-2,8.48-3.77-3.23,3.09-7.53,5.13-10.83,7.54,1.31.24,2.9-1.14,4.47-1.41.07.63-1.74.57-.94,1.17,2.29-1.32,4.91-2.33,7.08-3.76-1.33,1.83-4,2.28-5.66,3.76,3.34-.88,5.43-3,8.25-4.47,0,.37,0,.81.46.71.26-.62-1-.83-.23-1.18,1.81.54,3.26-2.49,5.19-3.31-1.23,1.85-4.18,3.21-4.71,5,.29-.33,1.2-1.29,1.41-.94a41.08,41.08,0,0,1-10.61,6.57c-.08.47.32.47.48.72-1.32.51-3,.6-4,1.41,4.42-.22,7-2.23,10.84-3.06a27.17,27.17,0,0,1,6.36-4.48c2.8-3.68,7.12-7.15,8.25-12.26,2-1.8,2-4.48,2.36-6.59s1.49-4.77,1.65-7.08a34.5,34.5,0,0,0-.24-5.18" transform="translate(-0.5 0.25)"/><path class="cls-5" d="M249.72,67.06c.15-.14.3-.29.44-.44h0c-.22.1-.43.2-.48.47" transform="translate(-0.5 0.25)"/><path class="cls-5" d="M257.5,13.79c-.14,0-.28,0-.23-.24h-.49c0,.18,0,.47-.23.47,0-.28-.06-.56-.47-.47-.12,1.07,1.08.62,1.41.24" transform="translate(-0.5 0.25)"/><path class="cls-5" d="M213.67,15.91c-.59.3-.74-.12-.94.23.06.06-.66,1.59-1.42.94a2.07,2.07,0,0,0-.47,2.13c1.69-.33,1.55-2.53,2.83-3.3" transform="translate(-0.5 0.25)"/><path class="cls-5" d="M249.89,66.43l.42-.43h0c-.2.11-.41.21-.46.47" transform="translate(-0.5 0.25)"/><path class="cls-6" d="M212.9,39.19C215,33,219.47,28.33,223.05,24.8c1.68-2.14,4.48-3.16,6.56-4.9-1.07.16-1.34,1-2.13.23A3.93,3.93,0,0,1,223.71,22a16.7,16.7,0,0,0,4.72-3.31c-3.07.72-5.43,3.38-7.77,4,2.43-1.49,4.52-3.34,7.06-4.72-3.24-.09-6.3,2-8.48,3.77,3.23-3.09,7.54-5.13,10.85-7.54-1.32-.23-2.92,1.14-4.49,1.42-.06-.64,1.75-.59,1-1.19-2.3,1.33-4.91,2.33-7.08,3.78,1.33-1.83,4-2.29,5.66-3.78-3.35.9-5.42,3.06-8.25,4.48,0-.36,0-.82-.47-.7-.26.59,1,.83.24,1.18-1.81-.55-3.27,2.47-5.19,3.3,1.23-1.84,4.18-3.22,4.72-4.95-.3.35-1.22,1.28-1.42.93a41.91,41.91,0,0,1,10.61-6.6c.06-.45-.33-.45-.47-.7,1.31-.49,3-.6,4-1.41-4.42.21-7,2.23-10.84,3.06a27.41,27.41,0,0,1-6.35,4.48c-2.81,3.69-7.13,7.15-8.26,12.25-2,1.81-2,4.49-2.36,6.61a24.61,24.61,0,0,1-.67,2.79Z" transform="translate(-0.5 0.25)"/><g class="cls-7"><text class="cls-8" transform="translate(2.82 144.4)"><tspan xml:space="preserve">禪    譜    科    技</tspan></text></g><text class="cls-9" transform="translate(3.28 98.65)">Zensor Research &amp; Development</text></svg>