<?xml version="1.0" encoding="utf-8"?>
<!-- Generator: Adobe Illustrator 25.0.1, SVG Export Plug-In . SVG Version: 6.00 Build 0)  -->
<svg version="1.1" id="圖層_1" xmlns="http://www.w3.org/2000/svg" xmlns:xlink="http://www.w3.org/1999/xlink" x="0px" y="0px"
	 viewBox="0 0 350 163.2" style="enable-background:new 0 0 350 163.2;" xml:space="preserve">
<style type="text/css">
	.st0{fill:#262E3B;}
	.st1{fill:#FFFFFF;}
	.st2{fill:#686564;stroke:#686564;stroke-width:1.42;stroke-miterlimit:10;}
	.st3{fill:#686564;}
	.st4{fill-rule:evenodd;clip-rule:evenodd;fill:#666767;}
	.st5{fill-rule:evenodd;clip-rule:evenodd;fill:#3F98C1;}
	.st6{fill:#3F98C1;}
	.st7{font-family:'ArialMT';}
	.st8{font-size:20.4631px;}
</style>
<rect class="st0" width="350" height="163.2"/>
<path class="st1" d="M4,6.6v12.2c0,2.1,1.7,3.8,3.8,3.8h30l-2.7-6.5L12.9,44.2c-3.3,4.1-6.8,8.1-9.8,12.4c-2.7,3.8-1.5,9.7-1.5,14.2
	c0,2.1,1.7,3.8,3.8,3.8h51.8c2.1,0,3.8-1.7,3.8-3.8V58.4c0-2.1-1.7-3.8-3.8-3.8H23.9l2.7,6.5l22.3-28c3.3-4.1,6.8-8.1,9.8-12.4
	c2.7-3.8,1.5-9.7,1.5-14.2c0-2.1-1.7-3.8-3.8-3.8H7.8c-4.9,0-4.9,7.7,0,7.7h48.5l-3.8-3.9v11l1.1-2.7L21.2,55.7
	c-2,2.5-0.9,6.5,2.7,6.5h33.4l-3.8-3.8v12.3l3.8-3.8H5.4l3.8,3.8v-11l-1.1,2.7l32.3-41c2-2.5,0.9-6.5-2.7-6.5h-30l3.8,3.8V6.6
	C11.7,1.7,4,1.7,4,6.6z"/>
<path class="st1" d="M69.8,49.4c-0.4,6.5,1.9,13.4,8.7,15.6c6.5,2.3,13.6-1.2,15.9-7.7c0.3-1,0.6-2,0.6-3l-3.8,3.9l12.7,0.9
	l-3.8-3.8c-0.5,4-5,8.2-8.2,10.2c-4.6,2.8-10.8,3-15.8,1.5C65,63.9,61,52.2,63.2,41.8c2.2-10.7,11.7-17.6,22.7-15.2
	c11.3,2.4,14.3,12.5,14.5,22.8l3.8-3.8H73.6c-4.9,0-4.9,7.7,0,7.7h30.5c2.1,0,3.8-1.7,3.8-3.8c-0.2-14.8-6.5-28.6-22.7-30.6
	C69.8,17,57.4,27.5,55.3,42.5c-2,14.7,5.4,29.6,20.9,32.5c13.2,2.5,29.7-4.9,31.4-19.6c0.3-2.2-2-3.7-3.8-3.8l-12.7-0.9
	c-2.2-0.2-3.7,1.9-3.8,3.8c-0.4,4.8-7.3,4.3-9.2,0.9c-1-1.9-0.8-3.9-0.7-5.9C77.7,44.5,70.1,44.5,69.8,49.4z"/>
<path class="st1" d="M94.2,41.2c-0.5-7.1-3.8-13.7-11.8-13.8c-8.2,0-12,6.4-12.8,13.8c-0.2,2,1.9,3.8,3.9,3.8h16.9
	c4.9,0,4.9-7.7,0-7.7H73.5l3.8,3.9c0.3-3.2,1.4-6.2,5.1-6.1c3.4,0.1,4,3.3,4.2,6.1C86.9,46.1,94.6,46.1,94.2,41.2z"/>
<path class="st1" d="M117.3,23.2v8c0,2.1,1.7,3.8,3.8,3.8h0.2c1.4,0,2.6-0.7,3.3-1.9c2.4-4.7,5.6-7.2,11.1-7c4,0.2,7.6,1.8,8.9,5.8
	c1.4,4.3,0.9,9.2,0.9,13.7v25l3.8-3.8h-13.8l3.8,3.8V49.4c0-7.8,0.7-20.1-10.1-20s-11.3,12-11.3,20v21.4l3.8-3.8H108l3.8,3.8V23.2
	l-3.8,3.8h13c4.9,0,4.9-7.7,0-7.7h-13c-2.1,0.1-3.7,1.8-3.8,3.8v47.5c0,2.1,1.7,3.8,3.8,3.8h13.8c2.1,0,3.8-1.7,3.8-3.8
	c0-3.9-2-34.2,3.6-33.7c3.7,0.3,2.4,14.5,2.4,17.5v16.2c0,2.1,1.7,3.8,3.8,3.8h13.8c2.1,0,3.8-1.7,3.8-3.8c0-9.8,0.1-19.6,0-29.3
	c-0.1-8.7-1.3-17.8-10.3-21.4c-9.5-4.1-20.4,0-24.9,9.4l3.3-1.9h-0.2l3.9,3.8v-8C124.9,18.3,117.3,18.3,117.3,23.2z"/>
<path class="st1" d="M186.4,36.5c-2.6-8-12.6-12.1-20.1-7.6c-2.9,1.7-4.3,5.1-3.4,8.3c1.4,4.6,6.6,5.4,10.7,6.2
	c5.1,0.9,12.7,1,16,5.6s1.6,11.8-2.5,15.1c-5,4.1-13.1,4.4-19.1,3.2c-6.3-1.2-10.5-4.4-12.2-10.6l-2.7,4.7l11.9-1.8l-4.7-2.7
	c2.5,8.8,13,11.1,20.9,8c3.7-1.4,6.4-4.9,5.3-9c-1.3-4.9-6.5-5.5-10.7-6.2c-4.8-0.7-11.4-1.2-15-4.8c-4-3.9-3.8-11.4,0.6-15
	c8.6-7,23.9-4.9,28.1,5.7l2.7-4.7l-10.3,2.8c-4.8,1.3-2.7,8.7,2,7.4l10.2-2.8c1.8-0.5,3.4-2.8,2.7-4.7c-3.6-9-10.4-14.3-20.2-15
	c-9.4-0.7-21.2,2.5-25,12.1c-3.6,9.2,0.3,19.6,9.4,23.5c4.9,2.1,10.3,2.3,15.5,3.4c0.9,0.1,1.8,0.3,2.7,0.7l-1.4-0.2
	c-1.5,0.4-3.1,0.5-4.7,0.4c-2.6-0.2-4.6-0.9-5.4-3.6c-0.6-2.2-2.6-3-4.7-2.7l-11.9,1.8c-2,0.3-3.2,2.9-2.7,4.7
	c2.8,10.2,10.8,15.4,21,16.5c10.1,1.1,22.1-1.3,27.3-11c4.1-7.6,2.6-18.5-4.8-23.4c-4.9-3.3-10.6-3.8-16.3-4.9c-1.3-0.2-7-0.8-3.5-1
	c3.2-0.2,5.9,0.1,7,3.5C180.5,43.2,187.9,41.2,186.4,36.5z"/>
<path class="st1" d="M222.1,52V38.5l-3.8,3.8h6.6c0.7,0,0.6-0.1-0.3,0c-3.5,0.7-3.4,5.3-0.9,7c1.4,1,2.3,3.1,3.2,4.6l3.3-5.8H227
	l3.3,1.9c-2.5-3.8-4.3-7.6-9.4-7.6c-2.1,0-3.8,1.7-3.8,3.8v5.7l3.8-3.8h-2.7c-4.9,0-4.9,7.7,0,7.7h2.7c2.1,0,3.8-1.7,3.8-3.8v-5.6
	l-3.8,3.8c0.7,0,0.6,0-0.1-0.5c0.4,0.4,0.7,0.9,0.9,1.4c0.6,0.9,1.1,1.8,1.8,2.7c1.7,2.4,4,2.1,6.6,2.1c2.1,0,3.8-1.8,3.8-3.9
	c0,0,0,0,0,0c0-0.6-0.2-1.3-0.5-1.8c-1.7-2.8-3.2-5.5-6-7.4l-0.9,7c6.6-1.4,8.9-10.5,2.6-14c-3-1.7-7.6-1-11-1
	c-2.1,0-3.8,1.7-3.8,3.8V52C214.4,57,222.1,57,222.1,52z"/>
<path class="st1" d="M220.9,48h3.4c1.2,0,2.4-0.3,3.5-1c1.6-1.1,2.5-2.9,2.4-4.8c-0.1-3.4-2.8-5.3-6-5.3h-3.3
	c-2.1,0-3.8,1.7-3.8,3.8v3.4c-0.1,2.1,1.5,3.9,3.6,4c2.1,0.1,3.9-1.5,4-3.6c0,0,0,0,0,0c0-0.1,0-0.3,0-0.4v-3.4l-3.8,3.8h3.4
	c-1.2-0.3-1.9-1.5-1.6-2.6c0.2-0.7,0.6-1.2,1.2-1.5c0.3-0.1,1.4-0.2,0.5-0.2h-3.6c-2.1,0.1-3.7,1.9-3.6,4
	C217.4,46.3,219,47.9,220.9,48L220.9,48z"/>
<path class="st1" d="M239.9,48.4l-1.5,2l5.2-1.4c-0.5-0.2-1-0.6-1.4-1c-1.5-1.4-3.9-1.4-5.4,0c-0.8,0.6-3.3,0.7-0.9-0.7
	c1.7-0.9,2.6-3.6,1.4-5.2c-0.3-1-0.7-1.1-1.2-0.2c0.1,0,0.3,0,0.4,0c-0.8-1.1,0.8-1.9-0.8-0.8s-2.7,3.5-1.4,5.2l1.9,2.5
	c1.5,2,5.3,2.9,6.6,0c0.4-0.8,0.7-1.6,0.9-2.5l-4.7,2.7l2.3,0.5l-2.7-4.7c-0.2,0.7-0.4,1.3-0.8,1.9c-0.9,1.5-0.6,3.4,0.6,4.6
	c0.9,0.8,1.8,1.6,2.9,2.2c4.3,2.5,8.1-4.2,3.9-6.6c-0.5-0.3-0.9-0.6-1.3-0.9l0.6,4.6c0.7-1.2,1.2-2.4,1.5-3.7c0.5-2-0.6-4.1-2.7-4.7
	l-2.3-0.5c-2-0.5-4.1,0.7-4.7,2.7l-0.2,0.6h6.6l-1.9-2.5l-1.4,5.2c2.5-1.7,4.4-3.7,4.3-7c-0.2-3.1-2.5-5.7-5.6-6.3
	c-7.2-1.6-11.8,5.7-7.5,11.5l1.4-5.2c-4.6,2.6-6.8,8.5-2.9,12.7c3.5,3.8,9.4,3,13,0h-5.4c0.9,0.8,1.9,1.5,2.9,2.2
	c1.9,1.1,4,0.3,5.2-1.4l1.5-2c1.3-1.7,0.2-4.3-1.4-5.2C243.1,45.9,241.1,46.8,239.9,48.4L239.9,48.4z"/>
<path class="st1" d="M233.4,42.5c-3.4,1.8-5,6.5-2.1,9.6c1.2,1.3,2.9,2,4.6,1.8c1.8-0.2,3.5-0.9,4.8-2.2c0.7-0.7,1.1-1.7,1.1-2.7
	c-0.1-1-0.5-2-1.1-2.7l-2.6-3.3c-1.2-1.6-4.1-1.4-5.4,0c-1.4,1.5-1.4,3.9,0,5.4l2.6,3.3v-5.4c0.7-0.6,0.1-0.1,0,0
	c-0.5,0.4,0.6-0.2,0.1,0c-0.3,0.1-0.2,0.1,0.3,0l0.5,0.1c-0.3-0.1-0.3-0.1,0,0c0.3,0.1,0.5,0.2,0.7,0.4c0.6,0.6,0.7,1.5,0.3,2.2
	c0.4-0.8-0.5,0.5,0,0l-0.4,0.3c0.2-0.1,0.3-0.2,0.5-0.3c1.8-1.1,2.4-3.4,1.4-5.2C237.5,42.1,235.2,41.5,233.4,42.5z"/>
<path class="st1" d="M238.2,46.3c1.4-0.9,2.5-2.1,3.1-3.6c0.4-1.4,0.2-2.9-0.6-4.1c-0.9-1.4-2.5-2.3-4.1-2.3c-3.2-0.3-6.1,2.8-5.2,6
	c0.5,1.3,1.2,2.4,2.2,3.4c1.5,1.5,3.9,1.5,5.4,0c1.4-1.5,1.4-3.9,0-5.4c-0.3-0.3-0.5-0.6-0.8-0.9l0.6,0.8c-0.1-0.2-0.3-0.4-0.4-0.6
	l0.4,0.9c0-0.1-0.1-0.2-0.1-0.3l0.1,1c0-0.1,0-0.2,0-0.3l-0.1,1l0.1-0.2l-0.4,0.9c0-0.1,0.1-0.2,0.2-0.3l-0.6,0.8
	c0.1-0.1,0.2-0.2,0.2-0.2l-0.8,0.6l0.1-0.1l-0.9,0.4c0.2-0.1,0.3-0.1,0.5-0.1l-1,0.1c0.2,0,0.4,0,0.5,0l-1-0.1c0.1,0,0.2,0,0.3,0.1
	l-0.9-0.4c0.1,0,0.2,0.1,0.2,0.2l-0.8-0.6c0.1,0.1,0.2,0.1,0.2,0.2l-0.6-0.8c0.1,0.1,0.1,0.2,0.2,0.3l-0.4-0.9
	c0,0.1,0.1,0.2,0.1,0.3l-0.1-1c0,0.1,0,0.2,0,0.3l0.1-1c0,0.1,0,0.2-0.1,0.3l0.4-0.9c-0.1,0.1-0.2,0.3-0.2,0.4l0.6-0.8
	c-0.1,0.1-0.3,0.3-0.4,0.4l0.8-0.6l-0.7,0.5c-0.8,0.5-1.5,1.3-1.8,2.3c-0.5,2,0.6,4.1,2.6,4.8C236.3,47,237.3,46.8,238.2,46.3z"/>
<path class="st1" d="M244.7,42.2h4.3c2.3,0,3,0.6,3,3.1c0,2.3-0.7,2.8-2.9,2.8h-4.4l3.8,3.9V38.5c0-4.9-7.6-4.9-7.6,0V52
	c0,2.1,1.7,3.8,3.8,3.8c2.5,0,5.3,0.3,7.8-0.3c4.8-1.1,7.2-5.6,7.2-10.2s-2.3-9.5-7.3-10.5c-2.4-0.5-5.2-0.2-7.7-0.2
	C239.8,34.6,239.8,42.2,244.7,42.2z"/>
<path class="st1" d="M243.5,40.8v9c0,2.1,1.7,3.8,3.8,3.8c1.7,0.1,3.4,0,5.1-0.4c3.2-1.1,4.3-4.2,4.4-7.3s-0.6-6.3-3.3-8
	c-1.9-1.2-4.1-1-6.2-1c-4.9,0-4.9,7.7,0,7.7c0.9,0.1,1.7,0.1,2.6,0c0.4-0.1-0.1,0-0.4-0.2c-0.2-0.1-0.3-0.2-0.3-0.4
	c-0.1-0.2-0.1-0.2-0.1,0c0.1,0.6,0.1,1.2,0.1,1.8c0,0,0.1,0.7,0,0.5c0.2,0.5-0.3,0.3,0.2,0c0,0,1-0.6,1-0.5c-0.3,0-0.7,0-1,0h-2
	l3.8,3.8v-9C251.2,35.8,243.5,35.8,243.5,40.8z"/>
<path class="st1" d="M285.5,23.2v8.9c0,2.1,1.7,3.8,3.8,3.8h0.3c1.7,0,3.2-1.2,3.7-2.8c1.5-5,3.6-7.1,8.8-6.8l-3.8-3.8v13.8l3.8-3.8
	c-12.2,0.4-15.5,9.6-15.6,20.5v17.7l3.8-3.8h-13.8l3.8,3.8V23.2l-3.8,3.8h12.8c4.9,0,4.9-7.7,0-7.7h-12.8c-2.1,0-3.8,1.8-3.8,3.9
	v47.5c0,2.1,1.7,3.8,3.8,3.8h13.8c2.1,0,3.8-1.7,3.8-3.8V56.6c0-2-0.1-3.9,0-5.9c0.3-5.9,1.3-10.4,7.9-10.6c2.1,0,3.8-1.7,3.9-3.8
	V22.5c0-2.1-1.7-3.8-3.8-3.8c-8.7-0.5-13.7,4.3-16.2,12.5l3.7-2.8h-0.2l3.8,3.8v-8.9C293.1,18.3,285.5,18.3,285.5,23.2z"/>
<path class="st1" d="M234.8,4.8c-1.3-0.6-2.7-0.8-4.1-0.4c-0.9,0.2-1.6,0.6-2.2,1.3C228,6,227.7,6.5,227.5,7
	c-0.3,0.6-0.4,1.2-0.4,1.8c0,0.7,0.2,1.3,0.5,1.9c0.2,0.4,0.6,0.8,1,1.1c0.9,0.8,2.2,1,3.3,0.7c0.1,0,0.2-0.1,0.4-0.1l-1,0.1
	c0.7,0,1.3,0,2-0.1c1.6-0.5,2.8-1.7,3.1-3.3c0.3-1,0.1-2.1-0.4-3c-1.1-1.8-3.4-2.4-5.2-1.4l0,0c-0.8,0.5-1.5,1.3-1.8,2.3
	c0,0.1,0,0.1-0.1,0.2l0.4-0.9c0,0.1-0.1,0.2-0.1,0.2l0.6-0.8l-0.1,0.1l0.8-0.6c0,0-0.1,0.1-0.1,0.1l0.9-0.4c-0.1,0-0.1,0-0.2,0.1
	l1-0.1c-0.2,0-0.4,0-0.6,0h-0.3c-0.5,0-0.9,0.1-1.4,0.2l4.9,3.7c0-0.1,0-0.1,0-0.2l-0.1,1V9.4l-0.4,0.9c0-0.1,0-0.1,0.1-0.1
	l-0.6,0.8l0.1-0.1l-0.8,0.6c0.1-0.1,0.1-0.1,0.2-0.1l-0.9,0.4c0.1-0.1,0.3-0.1,0.4-0.1l-1,0.1c0.2,0,0.5,0,0.7,0l-1-0.1
	c0.1,0,0.2,0,0.3,0.1l-0.9-0.4l0,0c0.9,0.5,2,0.6,2.9,0.4c2-0.5,3.2-2.6,2.7-4.7C236.2,6,235.6,5.2,234.8,4.8L234.8,4.8z"/>
<path class="st1" d="M229.7,4.6c-0.9,0.3-1.9,0.4-2.7,0.7c-0.9,0.3-1.7,0.8-2.4,1.4c-1.1,1.1-1.5,2.7-1.1,4.2
	c0.4,1.3,1.4,2.3,2.7,2.6c1.3,0.3,2.7,0,3.7-1c-0.6,0.4-0.8,0.5-0.4,0.3s0.2-0.1-0.5,0.2c0.2,0,0.3-0.1,0.5-0.1
	c0.4-0.1,0.7-0.1,1.1-0.2c1.5-0.4,2.8-1.3,3.6-2.6c1-1.9,0.3-4.2-1.6-5.2c-1.8-0.9-4-0.4-5,1.3c-0.2,0.3-0.1,0.2,0.3-0.4l0.6-0.4
	c-0.5,0.3,0.9-0.3,0.4-0.1l-1,0.2c-1.2,0.2-2.3,0.8-3.2,1.6l6.4,1.7c0.3,1.1,0,2.3-0.8,3.2l-0.6,0.5c0.1-0.1,0.2-0.1,0.3-0.2
	c-0.5,0.4-0.9,0.3-0.4,0.2l0.5-0.1c0.6-0.1,1.2-0.3,1.8-0.4c2-0.7,3.1-2.8,2.4-4.9C233.5,5.2,231.6,4.1,229.7,4.6L229.7,4.6z"/>
<path class="st1" d="M230.6,14.8c2.2-0.2,4.3-0.7,6.4-1.4c1.8-0.5,3-2.3,2.8-4.2c-0.2-1.9-1.9-3.3-3.8-3.3c-2.9-0.1-5.7,0.6-8.3,1.9
	c-1.8,1.1-2.4,3.4-1.4,5.2c1.1,1.8,3.4,2.4,5.2,1.4l0,0l0,0c0.2-0.1,0.4-0.2,0.6-0.3c-0.4,0.2-0.4,0.2,0.1,0
	c0.4-0.1,0.8-0.3,1.2-0.4l0.6-0.1h0.2c0.5,0,1.1-0.1,1.8-0.1l-1-7.5c-2.1,0.7-4.2,1.1-6.4,1.3c-2,0.4-3.2,2.8-2.7,4.7
	C226.4,14.2,228.5,15.4,230.6,14.8L230.6,14.8z"/>
<path class="st1" d="M236.3,13.8L236.3,13.8l-0.8,0.6l0.1-0.1l-0.9,0.4h0.2l-1,0.1c0.8,0,1.5-0.1,2.3-0.2c1.9-0.5,3.3-2.2,3.3-4.2
	l-0.1-1L239,8.6c-0.4-0.7-1.1-1.3-1.8-1.6c-1.4-0.6-3.1-0.3-4.2,0.8l0,0l0.8-0.6c0,0-0.1,0.1-0.1,0.1l0.9-0.4h-0.2l1-0.1
	c-0.8,0-1.5,0.1-2.3,0.2c-1.9,0.5-3.3,2.2-3.3,4.2c0,2.1,1.7,3.8,3.8,3.8c2.1,0,3.8-1.7,3.8-3.8v-0.1l-0.1,1v-0.1l-0.4,0.9
	c0,0,0-0.1,0.1-0.1l-0.6,0.8c0,0,0-0.1,0.1-0.1l-0.8,0.6c0,0,0.1,0,0.1-0.1l-0.9,0.4c0.1,0,0.2-0.1,0.3-0.1l-1,0.1h1
	c1.2,0,2.4-0.5,3.3-1.3l-6.5-2.7v0.1l0.1-1v0.1l0.4-0.9c0,0,0,0.1-0.1,0.1l0.6-0.8l-0.1,0.1l0.8-0.6c0,0-0.1,0-0.1,0.1l0.9-0.4
	c-0.1,0-0.2,0.1-0.3,0.1l1-0.1h-1c-1.2,0-2.4,0.5-3.3,1.3c-0.7,0.7-1.1,1.7-1.1,2.7c0,2.1,1.7,3.8,3.8,3.8c0,0,0,0,0,0l0,0
	C234.6,14.9,235.6,14.5,236.3,13.8z"/>
<path class="st1" d="M213,24.2c3.4-3,6.3-6.3,10.3-8.6s1.2-8.1-3-7c-3.1,0.9-5.9,2.6-8.2,4.9c-2,2.4-4.7,3.7-5.5,6.9
	c-1.2,4.8,6.1,6.8,7.4,2c0.2-0.6,1.3-1.4,1.9-2c1.1-0.9,2.1-2,2.9-3.2l-2.2,1.7c2-0.8,3.8-2.5,5.9-3.1l-3-7c-4.5,2.6-8,6.4-11.8,9.8
	S209.3,27.3,213,24.2L213,24.2z"/>
<path class="st1" d="M219.2,20.6c0-0.1,0.1-0.2,0.1-0.2l-0.6,0.8c0.1-0.1,0.2-0.2,0.3-0.3l-0.8,0.6c0.4-0.3,0.7-0.4,1.1-0.7
	c1.1-0.7,1.9-1.8,2.3-3.1c0.3-1.3,0-2.8-1-3.7c-1-1-2.4-1.4-3.7-1c-2.9,0.8-5.8,3.6-4.8,6.8c0.3,1,0.9,1.8,1.8,2.3
	C215.8,23,218.1,22.4,219.2,20.6c0.5-0.9,0.6-2,0.4-2.9c0,0,0-0.1,0-0.1l0.1,1v-0.2l-0.1,1c0-0.1,0-0.2,0.1-0.2l-0.4,0.9
	c0.1-0.1,0.1-0.3,0.2-0.4l-0.6,0.8c0.2-0.2,0.4-0.4,0.6-0.5l-0.8,0.6c0.3-0.2,0.6-0.4,0.9-0.5l-0.9,0.4c0.1-0.1,0.3-0.1,0.4-0.1
	l-4.7-4.7c0,0.1,0,0.2-0.1,0.3l0.4-0.9c0,0.1-0.1,0.2-0.1,0.2l0.6-0.8c-0.1,0.1-0.2,0.2-0.3,0.3l0.8-0.6c-0.3,0.2-0.6,0.4-0.9,0.6
	c-0.8,0.5-1.5,1.2-2,2c-0.5,0.9-0.7,2-0.4,3c0.6,2.1,2.7,3.3,4.7,2.7C217.9,22.1,218.7,21.5,219.2,20.6L219.2,20.6z"/>
<path class="st1" d="M225.7,15.6h-0.2l1-0.1l-1.5,0.2h-0.3c-0.4,0.1-0.7,0.3-1.1,0.5c-0.3,0.2-0.7,0.4-0.9,0.7
	c-0.4,0.4-0.7,0.8-0.9,1.4c-0.2,0.5-0.3,1.1-0.4,1.6c0,0.4,0.1,0.9,0.2,1.3c0.1,0.5,0.3,0.9,0.7,1.3c0.3,0.4,0.6,0.8,1.1,1
	c0.9,0.5,1.9,0.6,2.9,0.4c0.6-0.1,1.2-0.4,1.8-0.8c0.8-0.5,1.5-1.1,2-1.9c0.3-0.4,0.5-0.9,0.5-1.4c0.1-0.5,0.1-1-0.1-1.5
	C229.9,16.3,227.8,15.1,225.7,15.6l-0.9,0.4c-0.6,0.3-1,0.8-1.4,1.4l-0.1,0.1l0.6-0.8c-0.1,0.1-0.2,0.3-0.4,0.4l0.8-0.6
	c-0.1,0.1-0.3,0.2-0.5,0.3l0.9-0.4c-0.2,0.1-0.3,0.1-0.5,0.1l4.7,2.7v-0.1l0.1,1c0-0.1,0-0.2,0-0.3l-0.1,1v-0.1l-0.4,0.9v-0.1
	l-0.6,0.8c0,0,0.1-0.1,0.1-0.1l-0.8,0.6l0.2-0.1l-0.9,0.4c0.1,0,0.2-0.1,0.4-0.1l-1,0.1c0.6-0.1,1.1-0.1,1.7-0.2
	c0.5-0.1,0.9-0.3,1.3-0.7c0.4-0.3,0.8-0.6,1-1.1c0.3-0.4,0.4-0.9,0.4-1.4c0.1-0.5,0.1-1-0.1-1.5c-0.3-1-0.9-1.8-1.8-2.3l-0.9-0.4
	C227,15.4,226.3,15.4,225.7,15.6L225.7,15.6z"/>
<path class="st1" d="M210,18.4l-0.1,0.2l0.6-0.8c-0.7,0.8-1.3,1.6-1.9,2.5c-0.8,1.4-0.6,3,0.3,4.2c0.4,0.5,0.9,0.9,1.5,1.2
	c0.8,0.3,1.7,0.4,2.5,0.2c0.4-0.1,0.8-0.3,1.2-0.5c0.1-0.1,0.2-0.1,0.4-0.2c0.7-0.5,1.4-1.2,1.9-1.9c0.1-0.1,0.1-0.2,0.2-0.3
	c0.2-0.4,0.4-0.8,0.5-1.2c0.3-1.1,0.1-2.4-0.4-3.4c-0.5-0.9-1.3-1.5-2.3-1.8c-2-0.6-4.1,0.6-4.7,2.7c-0.3,1-0.1,2.1,0.4,3v0
	l-0.4-0.9c0,0,0,0.1,0,0.1l-0.1-1c0,0.1,0,0.1,0,0.2l0.1-1c0,0.1-0.1,0.2-0.1,0.3l0.4-0.9c-0.1,0.2-0.2,0.3-0.3,0.5l0.6-0.8
	c-0.1,0.1-0.3,0.3-0.4,0.4l0.8-0.6c-0.1,0.1-0.3,0.2-0.5,0.3l0.9-0.4c-0.1,0-0.2,0-0.2,0.1l4.3,5.6c0.1-0.2,0.3-0.4,0.4-0.6
	l-0.6,0.8c0.5-0.7,1.1-1.3,1.6-2c0.5-0.9,0.6-2,0.4-3c-0.5-2-2.6-3.3-4.7-2.7l-0.9,0.4C210.8,17.3,210.3,17.8,210,18.4L210,18.4z"/>
<path class="st1" d="M208.6,18.9c-0.4,0.1-0.8,0.3-1.2,0.5c-0.1,0.1-0.3,0.1-0.4,0.2c-0.8,0.5-1.4,1.2-1.9,2c-1,1.5-1,3.5-0.2,5.1
	c0.7,1.2,1.9,1.9,3.3,1.9c1.4,0,2.6-0.7,3.3-1.9l1.4-2.1c1.1-1.8,0.4-4.2-1.4-5.2l0,0C210.6,18.8,209.5,18.7,208.6,18.9
	c-0.9,0.3-1.7,0.9-2.3,1.8c-0.5,0.7-0.9,1.4-1.4,2.1h6.6v-0.1l0.4,0.9c0-0.1-0.1-0.1-0.1-0.2l0.1,1c0-0.1,0-0.2,0-0.2l-0.1,1
	c0-0.1,0.1-0.2,0.1-0.4l-0.4,0.9c0.1-0.2,0.2-0.4,0.3-0.5l-0.6,0.8c0.1-0.1,0.2-0.3,0.4-0.4l-0.8,0.6c0.1-0.1,0.3-0.2,0.4-0.2
	l-0.9,0.4l0.3-0.1c2-0.5,3.2-2.6,2.7-4.6c-0.3-1-0.9-1.8-1.8-2.3l0,0C210.6,18.9,209.6,18.8,208.6,18.9L208.6,18.9z"/>
<path class="st1" d="M276.1,42.8c-0.7-7.2-2.3-14.2-6-20.5c-2.7-4.8-6.8-10.4-12.6-11.4c-2.1-0.5-4.2,0.8-4.7,2.8
	c-0.3,1.3,0,2.6,0.9,3.6c1.1,1.4,1.9,2.3,3.6,2.8c3.5,1,5.6-2.8,4.3-5.6c-0.4-1-1.2-1.8-2.2-2.2l1.8,4.3l0.1-0.3l-5.6,2.3l0.2,0.2
	l-1.1-2.7v0.4l4.8-3.7h-0.2c-1.7-0.4-3.4,0.3-4.4,1.8v0.1l4.4-1.8c-2.5-1-4.8-2.5-7.3-3.5c-3.5-1.4-6.6,4.1-3.7,6.4
	c3.7,3,7.8,5.3,9.8,9.8l6.6-3.9C257.4,11.5,239,3,226.9,9.8h3.9l-0.3-0.2c-3-2.2-6.2,1.4-5.6,4.3c0.3,1.2,1.1,2.2,2.2,2.7l-1.8-4.3
	l-0.2,0.4l2.7-2.7c-3,1.1-5.9,2.3-8.8,3.6c-0.8,0.3-4.8,3.1-4,3.1c-2.1,0-3.9,1.8-3.8,3.9c0,0,0,0,0,0c0,0.3,0,0.6,0.1,0.9v-1.1
	l1.8-2.2c-3.1,2-4.5,5.2-7.1,7.7c-3.6,3.3,1.8,8.7,5.4,5.4c0.4-0.3,0.8-0.8,1.1-1.2c1.8-3.8-2.7-7.8-6-4.6c-1.2,1.1-1.5,3-2.6,4
	l6.4,3.7c0.6-1.8,0.9-3.5-0.4-5.1v3.8c0.6-1,1.2-2,1.6-3c1.8-3.7-3-8.1-6-4.6s-3.8,7.5-5.4,11.6l7.5,1c0.3-2.8,1.8-5.2,2.4-7.9
	c0.5-2.1-0.7-4.2-2.8-4.7c0,0,0,0,0,0c-0.9-0.2-1.9-0.1-2.8,0.4l-0.2,0.1l4.3,1.8l-0.4-0.7c-1.5-3.2-6-1.9-7,0.9l-0.6,1l7.1,1.9
	c0.1-1.5,0.9-2.4,0.7-4c-0.4-3.2-5.3-5.8-7.1-1.9l-0.3,0.6l6.4,3.7c0.1-0.3,0.1-0.6,0.2-0.9c1.1-4.2-4.8-6.8-7-2.9
	c-4.3,7.4-5.8,16-5.7,24.5h7.6c-0.3-3.3,0.3-7.8-3.5-9.1c-2.4-0.8-4.9,1.3-4.8,3.7c0,4-0.2,7.7,1.5,11.3v-3.9
	c-2,4.3,1.4,9.6,3.6,13.3c3,4.7,6.8,8.8,11.4,12l-1.8-2.3c1.1,3.8,6.4,7,10,8.4c4.2,1.6,10.8,0.9,14.2-2.2c3.7-3.4,4.6-9.1,1.3-13
	c-1.6-2-3.7-3.6-6.1-4.7c-2.8-1.2-4.4-0.6-6.7-1.6c-2.9-1.4-6.6,0.9-5.6,4.3c0.3,1.4,1.2,2.5,2.5,3.2l-1.9-3.3v0.3l5.7-3.3
	c-3.1-1.4-5.4-2.8-7.1-5.9c-2.1-4-7.9-1.2-7,3l0.1,0.5l0.4-3l-0.1,0.2h6.6c-0.9-2-2-4-4.5-4l3.7,4.8c0.3-1.3-0.4-2.2-0.3-3.4l-7.5,1
	c0.3,0.8,0.7,1.6,1.1,2.4l-0.4-3l-0.2,0.9c-0.4,1.3,0,2.8,1,3.7l0,0c1,1,2.4,1.4,3.7,1c0.9-0.3,1.7-0.8,2.4-1.5l-6-0.8
	c0.8,1.5,1.9,2.9,3.2,4.1c3.1,2.8,8.4-0.8,6-4.6c-0.5-0.7-1-1.3-1.4-2.1l-7.1,1.9c2.7,3.8,5.3,6.6,10.1,7.1c4.2,0.4,4.6-5.1,1.9-7.1
	c-1.3-0.8-2.4-1.9-3.3-3.1l-5.2,5.2c0.8,0.5,1.7,0.8,2.6,1.1c3.3,1.1,5.9-2.8,4.3-5.6c-1.4-2.4-3.1-4.3-3.6-7.1l-5.6,4.3
	c0.5,0.3,1.1,0.5,1.6,0.6c2.1,0.5,4.2-0.7,4.7-2.8c0,0,0,0,0,0c0.1-0.6,0.1-1.2,0-1.8c-0.4-2-0.6-4-0.7-6.1c-0.2-1.3-0.5-2.7-0.8-4
	c-0.1,1.1,0.9-1.4,1.1-1.8c0.6-1.3,1-2.6,1.4-4l-5.6,2.3c1.8,1.4,4.4,1,5.9-0.8c1.2-1.4,1.8-3.4,3-4.9s2.3-2.9,3.4-4.4
	c1.8-2.5-0.7-5.7-3.3-5.8c-1-0.1-1.9,0.2-2.7,0.7l5.2,1.4l-0.2-0.2l-0.6,4.6c1.3-1.6,2.3-3.3,1.5-5.4c-0.6-2.1-2.8-3.2-4.9-2.6
	c-0.6,0.2-1.1,0.5-1.5,0.9c-1.1,0.9-2.2,1.8-3.3,2.8l5.4,5.4c2.8-3.7,6.8-6.3,11.3-7.4c4.8-1.1,2.8-8.5-2-7.4
	c-0.5,0.1-1,0.2-1.4,0.5c-2.1,0.8-3.8,3.4-2.3,5.6c1.2,1.8,2.5,2.2,4.6,2.3l-3.7-4.8v0.1l2.7-2.7c-2.6,0.9-5,2.3-7,4.3
	c-3.1,3.1,0.9,8.1,4.6,6c1.1-0.7,2.3-1.2,3.6-1.5l-4.7-4.7l0.6-0.9c-1,1-1.4,2.4-1,3.7l0.2,0.4c0.5,1.6,2,2.7,3.7,2.8
	c1.8-0.1,3.7-1.1,5.4-1l-1-7.5c-11.9,4.4-21.8,10.6-23.5,24.1c-0.6,4.5,6.2,4.9,7.5,1c2.5-7.6,6.4-12,13.7-15.1
	c8-3.4,17.2-1.1,21.9,6.4c4.1,6.7,5.5,15.6,2.1,22.9c-3,6.6-8.6,10.9-14.2,15.1c-3.1,2.4-1.5,8.6,3,7c0.5-0.2,1-0.3,1.5-0.6l-3-0.4
	l0.7,0.3c1.4,0.7,3.5,0.8,4.6-0.6l1.1-0.8l-1.9-7.1c-2,1-3.8,2.4-5.5,3.9c-2.8,2.6,0.1,7.6,3.7,6.4c2.9-0.9,5-3,7.8-4l-2.9-7
	c-2.4,1.6-4.6,3.3-7.1,4.7c-3.1,1.8-2,7.4,1.9,7.1c3.8-0.3,7.5-1.8,10.4-4.3l-4.6-6c-3.1,2.7-6.7,4.6-10,6.9c-2.8,2-2.2,7.5,1.9,7.1
	c1.9-0.3,3.7-0.8,5.4-1.5l-3.7-6.4l-0.3,0.2c-1.6,0.7-2.1,2.8-1.8,4.3l0.1,0.4c0.6,2,2.7,3.2,4.8,2.6c0,0,0,0,0,0
	c0.3-0.1,0.6-0.2,0.9-0.4c2.3-1.3,4.8-2.4,7.1-3.8l-4.6-6c-1.4,1.4-3.3,2-4.9,3.2c-3.3,2.3-1.5,8.5,2.9,7c3.4-1.2,6.1-3.1,9.1-4.8
	l-5.8-3.3V73c0.1,1.2,0.6,2.8,1.9,3.3l0.4,0.2c3,1.3,6.4-0.8,5.6-4.3c-0.2-1-0.7-1.9-1.5-2.6l0.6,4.7l0.2-0.3l-3.3,1.9
	c3.4,0,4.5-2.2,7.1-3.8l-4.6-6c-1.7,2-4,3.3-5.3,5.7c-2,3.7,2.9,7.9,6,4.6c0.3-0.3,0.6-0.7,1-0.9l-2.7,1.2h0.4l-2.7-6.5
	c-3,2.4-6.3,4.4-9.8,6c-1.5,0.9-2.2,2.7-1.8,4.3c0.2,0.9,0.7,1.8,1.5,2.4l1.7-6.4c-1.7,0.4-3.3,1-4.9,1.8c-3.2,1.7-1.9,7.5,1.9,7.1
	c10.7-1.1,19.4-7,25.6-15.5c5.5-7.8,8.1-17.3,7.4-26.8c-0.5-4.9-8.1-4.9-7.7,0C270,58,259.4,76,243.2,77.7l1.9,7.1
	c1-0.4,2-0.7,3.1-1c2.6-0.8,4-4.5,1.7-6.4l0.5,1l-1.8,4.2c4.1-1.9,7.9-4.3,11.4-7.2c2.6-2.1,0.4-6.7-2.7-6.5
	c-1.6,0.1-3.1,0.8-4.1,2.1l6,4.6c0.9-1.7,2.9-2.7,4.1-4.2c2.6-3.2-0.7-8.4-4.6-6c-1.1,0.7-2.6,2.4-3.2,2.8c-1.4,0.8-2.4,0.7-3.5,2.2
	c-0.9,1.5-0.6,3.4,0.6,4.6l-0.5-0.8l5.6-4.3l-0.4-0.2l1.9,3.3v-0.5c-0.3-2.8-3-4.8-5.8-3.3c-2.4,1.4-4.6,3.2-7.3,4.1l3,7
	c2.2-1.6,4.5-2.4,6.4-4.3c3-3.1-0.9-8.3-4.6-6c-2.3,1.4-4.7,2.5-7.1,3.8l5.6,2.3l-0.1-0.4l-1.8,4.3c0.7-0.3,1.3-0.8,1.8-1.3
	c2.4-2.7,0.2-7.6-3.7-6.4c-1.1,0.5-2.3,0.9-3.4,1.3l1.9,7.1c3.9-2.7,8-5,11.6-8.1c3.2-2.8-1.2-8.7-4.6-6c-2,1.5-3.9,3-6.5,3.2
	l1.9,7.1c2.4-1.4,4.7-3.2,7.1-4.7c3.4-2.2,1.3-8.6-3-7c-2.7,1.1-5,3.1-7.8,4l3.7,6.4c1.2-1.1,2.5-2,3.9-2.7c3.4-1.8,1.8-7.1-1.9-7.1
	c-2.5-0.1-4.9,1-6.5,3l4.6-0.6c-1.6-0.9-3.5-0.9-5.1-0.2l2.9,7c7.7-5.8,15.2-11.9,18.4-21.5c3.3-10.1,0.6-21.9-5.9-30.1
	s-18.7-10.6-28.3-6.8c-4.6,1.9-8.9,4-12.3,7.8s-5.2,8-6.8,12.7l7.5,1c1.2-9.6,9.7-13.7,17.9-16.8c2-0.6,3.2-2.8,2.5-4.8
	c-0.5-1.6-1.9-2.7-3.5-2.7c-2-0.1-3.5,0.9-5.4,0.9l3.7,2.8l-0.2-0.4l-1,3.7c0.7-0.7,1.2-1.6,1.4-2.5c0.5-2.1-0.7-4.2-2.8-4.7
	c-0.6-0.2-1.3-0.2-1.9,0c-1.9,0.5-3.7,1.3-5.4,2.3l4.6,6c2-1.9,5.4-2.2,6.3-5c0.8-2.5-1.3-4.7-3.7-4.8h-0.1l2.3,1.8l-0.2-0.3
	l-2.3,5.6c0.4-0.2,0.9-0.4,1.4-0.5c4.8-1.1,2.8-8.5-2-7.4c-5.8,1.4-11,4.7-14.6,9.4c-3,3.8,1.7,8.9,5.4,5.4c1.1-1,2.2-1.9,3.3-2.8
	l-6.3-1.7l0.2,0.5l0.4-3l-0.1,0.3c-1,1.2-1.7,3.2-0.6,4.6l0.2,0.2c1.2,1.6,3.3,2.6,5.2,1.4l-1.1,0.3l-3.4-5.8
	c-2.2,3-4.6,5.5-6.1,8.9l2.3-1.8l-0.5,0.1l3,0.4l-0.5-0.3c-1.9-1.4-5.2,0-5.6,2.3c-0.4,2-1.6,3.3-1.6,5.5l1.1-2.7
	c-2.7,2.9-2.8,7.3-0.2,10.4l-1.2-2.7c-0.3,3.2,0.3,6.3,0.9,9.5l4.7-4.7l0.2,0.2c-3.1-1.4-6.3,0.9-5.6,4.3s2.7,5.9,4.4,8.9l4.3-5.6
	l-0.7-0.3c-3.1-1.7-7.6,2-5.2,5.2c1.7,2.3,3.7,4.2,6.1,5.9l1.9-7.1c-1.5-0.2-2.7-2.2-3.5-3.3c-2-2.8-7.4-2.2-7.1,1.9
	c0.2,2.4,1.2,3.9,2.4,5.9l6-4.6c-0.9-0.6-1.6-1.5-2-2.5c-1.1-2-4.4-2.7-6-0.8l1-0.5l3.7,1l0,0l1,3.7c0.5-1.9,0.2-2.7-0.5-4.4
	c-1.5-3.8-7.4-3.6-7.5,1c0,1.5,0.3,3,1,4.3l-0.4-3l0,0c-0.5,2.1,0.7,4.2,2.8,4.7c0,0,0,0,0,0c0.3,0.1,0.6,0.1,0.9,0.1l0,0l-3.3-1.9
	c0.4,0.7,0.8,1.4,1.1,2.1c1.1,2.5,5.5,2.6,6.6,0c0.6-1.1,0.7-2.4,0.4-3.7l-7,3c2.2,4.2,5.6,6.7,9.9,8.7c2.6,1.2,5.7-0.2,5.8-3.3
	c0-1.7-0.9-3.2-2.4-3.9l1.8,2.3l-0.2-0.6l-5.6,4.3c1.8,1,3.8,1.7,5.8,2c3,0.4,4.4,1.7,6.4,4.2l-1.1-2.7c0.4,5.8-6.7,4.8-10,2.4
	c-0.6-0.5-1.3-1-1.9-1.4c-2.9-2.2,0.5,0.7-0.7-0.6c-1.5-1.5-3.1-3-4.8-4.5c-3.7-3.5-6.6-7.8-8.4-12.6l-0.7,0.5
	c0.3-0.4,0.4-0.9,0.4-1.4c-0.2-0.8-0.3-1.6-0.4-2.4c-0.4-2.5-0.6-5-0.4-7.5l-4.8,3.7l0.1,0l-2.7-2.7c0.2,1.4,0.4,2.9,0.4,4.3
	c0.5,4.8,7.7,5,7.6,0c-0.1-7.2,1-14.3,4.6-20.6l-7-3c-0.1,0.3-0.2,0.6-0.2,0.9c-0.8,3.5,3.7,6.7,6.4,3.7c0.6-0.6,1.1-1.4,1.5-2.2
	l-7.1-1.9c0.1,1.1-0.6,2.8-0.7,4c-0.2,4,5.1,4.9,7.1,1.9c0.6-0.9,1-1.8,1.3-2.8l-7,0.9l0.4,0.7c0.9,1.5,2.7,2.2,4.3,1.8
	c0.7-0.2,1.4-0.5,2-0.9l-5.6-4.3c-0.9,3.4-2.4,6.4-2.7,10c-0.5,4.6,6.1,4.7,7.5,1c1-2.7,1.6-6,3.5-8.2l-6-4.6
	c-0.5,1.1-1,2.1-1.6,3.1c-0.7,1.2-0.7,2.7,0,3.9l0.4,0.6l-0.4-3c-0.1,0.5-0.3,1-0.5,1.5c-1.4,3.9,3.8,6.1,6.4,3.7
	c1.3-1.2,1.5-2.9,2.6-4l-6-4.6l0.1-0.3c-3.6,3.4,1.8,8.8,5.4,5.4c2-1.9,3.8-4.4,5.6-6.5c1.5-1.7,2.4-2.7,1.8-5.2l-3.7,4.8
	c3.4-0.3,5-2.8,7.9-4.1c3.4-1.5,8.4-2.2,9.8-5.9c0.6-1.6-0.4-3.4-1.8-4.3l-0.4-0.3l1.8,2.3v-0.2l-5.6,4.3l0.3,0.2
	c1.2,0.7,2.7,0.7,3.9,0c8-4.5,22.5,2.5,27.4,9.2c1.1,1.8,3.5,2.3,5.3,1.2c1.7-1.1,2.3-3.3,1.3-5c-2.3-5.2-6.7-7.9-11-11.4l-3.7,6.4
	c2.5,1,4.8,2.5,7.3,3.5c1.6,0.7,3.5-0.5,4.3-1.8v0l-4.3,1.8l0.2,0c2.1,0.5,4.2-0.7,4.7-2.8c0,0,0,0,0,0c0.1-0.3,0.1-0.6,0.1-0.9
	c0.2-2.2-1.3-3.3-2.9-4.5c-1.9-1.4-5.1,0-5.6,2.3l-0.1,0.3c-0.4,1.7,0.3,3.4,1.8,4.3l-0.6-0.6l4.4-5.6l-0.6-0.2l2.3,1.8
	c-0.6-0.8-1.2-1.6-1.9-2.4l-3.8,6.4c4,0.6,6.6,5.3,8.4,8.4c2.6,5,4.2,10.4,4.6,16.1C269,47.7,276.6,47.8,276.1,42.8L276.1,42.8z"/>
<path class="st1" d="M251.3,69.8c0.1-0.1,0.3-0.3,0.4-0.4l-0.8,0.6c0.1-0.1,0.3-0.2,0.4-0.3c0.1-0.1,0.3-0.2,0.4-0.3
	c0.7-0.7,1.1-1.7,1.1-2.7l-0.1-1c-0.1-0.5-0.3-0.9-0.7-1.3c-0.2-0.3-0.4-0.5-0.7-0.7c-0.4-0.3-0.8-0.6-1.3-0.7l-1-0.1
	c-0.7,0-1.3,0.2-1.9,0.5c-0.4,0.2-0.8,0.5-1.1,0.8l-0.1,0.1l-0.6,0.8l0,0c-0.2,0.3-0.4,0.7-0.4,1.1c-0.2,0.5-0.2,1-0.1,1.5
	c0,0.5,0.2,1,0.5,1.4c0.2,0.4,0.6,0.8,1,1.1c0.4,0.3,0.8,0.6,1.3,0.7l1,0.1c0.7,0,1.3-0.2,1.9-0.5L251.3,69.8
	c0.5-0.5,0.9-1.1,1.1-1.7v-0.1l-0.4,0.9c0,0,0-0.1,0.1-0.1l-0.6,0.8l0.1-0.1l-0.8,0.6c0.1-0.1,0.2-0.1,0.3-0.2l-4.6-6l0,0l0.8-0.6
	c-0.3,0.2-0.6,0.4-0.9,0.7l-0.1,0.1l-0.2,0.2c-0.4,0.3-0.7,0.8-0.9,1.3c-0.5,0.9-0.5,2.1,0,3c0.2,0.5,0.4,0.9,0.8,1.2l0.8,0.6
	c0.6,0.3,1.3,0.5,1.9,0.5l1-0.1C250.2,70.6,250.8,70.3,251.3,69.8L251.3,69.8z"/>
<path class="st1" d="M257.4,10.2h-0.2l0.9,0.4l0,0l1.4,1.4l0,0l0.4,0.9l0,0l0.1,1v-0.1c0-0.5-0.1-1-0.3-1.5
	c-0.1-0.5-0.4-0.9-0.8-1.2c-0.7-0.7-1.7-1.1-2.7-1.1h-0.5l-1,0.1c-0.5,0.1-0.9,0.3-1.3,0.7c-0.7,0.5-1.2,1.2-1.4,2
	c-0.1,0.4-0.1,0.8-0.2,1.3l0.1-1c0,0,0,0.1,0,0.1l0.4-0.9l0,0l0.6-0.8l0,0l0.8-0.6h-0.1l0.9-0.4h-0.1l4.7,3.6c0-0.4-0.1-0.8-0.2-1.2
	c-0.2-0.7-0.6-1.3-1.1-1.9c-0.5-0.5-1.1-0.9-1.8-1.1c-0.7-0.2-1.5-0.2-2.3,0l-0.9,0.4c-0.4,0.2-0.8,0.6-1.1,1
	c-0.2,0.2-0.4,0.5-0.4,0.9c-0.2,0.5-0.4,1-0.3,1.5c-0.1,1.2,0.3,2.3,1.1,3.2c0.4,0.4,0.9,0.7,1.4,0.9c0.2,0.1,0.4,0.2,0.6,0.2l1,0.1
	h0.1c0.9,0,1.7-0.2,2.5-0.6c0.1,0,0.2-0.1,0.2-0.1c0.4-0.2,0.7-0.5,1-0.8c0.7-0.7,1.1-1.7,1.1-2.7c0-1-0.4-2-1.1-2.7
	c-0.7-0.7-1.7-1.1-2.7-1.1c-1,0-2,0.4-2.7,1.1l-0.1,0.1l0.8-0.6c-0.1,0.1-0.2,0.2-0.4,0.2l0.9-0.4c-0.1,0-0.2,0.1-0.3,0.1l1-0.1
	h-0.2l1,0.1h-0.1l0.9,0.4L257,11l0.8,0.6l0-0.1l0.6,0.8l-0.1-0.1l0.4,0.9V13l0.1,1v-0.3l-2.8,3.7h0.1l-1,0.1h0.1l-1-0.1l0,0
	l-0.9-0.4l0,0l-0.8-0.6c0,0,0.1,0,0.1,0.1l-0.6-0.8l0,0l-0.4-0.9c0,0.1,0.1,0.1,0.1,0.2l-0.1-1v0.1c0,0.7,0.2,1.4,0.5,1.9
	c0.2,0.4,0.6,0.8,1,1.1c0.4,0.3,0.8,0.6,1.3,0.7c1.4,0.4,2.8,0,3.8-1c0.3-0.3,0.5-0.5,0.7-0.9c0.4-0.7,0.5-1.5,0.6-2.2l-0.1,1v-0.1
	l-3.6,2.8h0.5l-3.6-3.8c0,0.2,0,0.4,0.1,0.6c0,0.2,0,0.4,0.1,0.6c0.2,0.6,0.5,1.2,1,1.7c0.5,0.5,1.2,0.8,1.9,1
	c0.5,0.2,1,0.2,1.5,0.1c0.5,0,1-0.2,1.4-0.5c1.8-1.1,2.4-3.4,1.4-5.2c0,0,0,0,0,0l0,0l-0.6-0.8C258.6,10.7,258,10.4,257.4,10.2
	L257.4,10.2z"/>
<path class="st1" d="M211.6,12.4c-0.1,0.1-0.2,0.1-0.3,0.1l1-0.1H212l1,0.1c-1.1-0.3-2.3-0.1-3.3,0.4c-1.5,0.9-2.2,2.7-1.8,4.4v-2
	c-0.1,0.5,0.5-1.2,0.2-0.4c-0.1,0.2,0.7-0.8,0.3-0.4L209,14c0.8-0.2,1-0.3,0.6-0.3l1-0.1h-0.1l1,0.1c0.7,0.4,0.9,0.4,0.6,0.2
	c-0.9-0.5-1.9-0.7-2.9-0.4c-0.9,0.3-1.7,0.9-2.3,1.8c-1,1.5-1.3,3.3-0.9,5.1c0.6,2,2.7,3.2,4.7,2.7c1.6-0.4,2.9-1.5,3.7-2.9
	c0.2-0.3,0.3-0.7,0.5-1s0.2-0.3,0.3-0.5c0.2-0.4-0.6,0.8-0.4,0.5s0.7-0.4-0.4,0.3c1.8-1.1,2.3-3.5,1.2-5.3c-1.1-1.7-3.3-2.3-5-1.3
	c-1,0.7-1.9,1.7-2.4,2.8c-0.1,0.3-0.3,0.6-0.5,0.9c0.5-0.6,0.6-0.7,0.4-0.5c-0.2,0.3-0.1,0.2,0.5-0.3c-0.8,0.3,0.9-0.3,0.2-0.1
	l4.7,2.7l-0.1-0.4l0.1,1c0-0.2,0-0.3,0-0.5l-0.1,1c0-0.1,0-0.2,0.1-0.3c-0.3,0.6-0.4,0.8-0.2,0.5c0.1-0.2,0.2-0.4,0.4-0.5l-5.2,1.4
	c1.8,1.1,4.2,0.8,5.6-0.8c1.2-1.2,1.7-2.9,1.4-4.5l-0.4,3l0.1-0.1l-1.4,1.4l-0.8,0.3l-1,0.1h0.1l-1-0.1c0.9,0.2,1.8,0.2,2.7-0.1
	c0.9-0.3,1.7-0.9,2.3-1.8c0.5-0.9,0.7-2,0.4-3c-0.3-1-0.9-1.8-1.8-2.3c-0.9-0.5-2-0.7-3-0.4L211.6,12.4z"/>
<path class="st1" d="M251.5,69.1l0.4-0.4l-0.8,0.6c0.3-0.2,0.6-0.4,0.8-0.6c0.4-0.3,0.6-0.8,0.8-1.2c0.2-0.5,0.4-1,0.3-1.5l-0.1-1
	c-0.1-0.5-0.3-0.9-0.7-1.3c-0.2-0.3-0.4-0.5-0.7-0.7c-0.4-0.3-0.8-0.6-1.3-0.7l-1-0.1c-0.7,0-1.4,0.2-1.9,0.5
	c-0.4,0.2-0.7,0.5-1.1,0.8c-0.6,0.5-1,1.2-1.1,2c-0.2,0.5-0.2,1-0.1,1.5c0,0.5,0.2,1,0.4,1.4c0.2,0.4,0.6,0.8,1,1.1
	c0.4,0.3,0.8,0.6,1.3,0.7l1,0.1c0.7,0,1.3-0.2,1.9-0.5L251.5,69.1c0.5-0.4,0.8-1,1-1.6v-0.1l-0.4,0.9l0.1-0.1l-0.6,0.8l0.1-0.1
	l-0.8,0.6c0.1-0.1,0.2-0.1,0.3-0.2l-4.6-6l0,0l0.8-0.6c-0.4,0.2-0.7,0.5-1,0.8l-0.2,0.2c-0.4,0.3-0.6,0.8-0.8,1.2
	c-0.2,0.5-0.3,1-0.3,1.5c0,1,0.4,2,1.1,2.7l0.8,0.6c0.6,0.4,1.3,0.5,1.9,0.5l1-0.1C250.4,70,251,69.6,251.5,69.1L251.5,69.1z"/>
<path class="st1" d="M215.5,40.2c2.9-7.6,8.7-12.3,14.9-17c3.1-2.4,1.5-8.6-2.9-7c-0.5,0.2-1,0.4-1.5,0.5l3,0.4l-0.7-0.3
	c-1.4-0.7-3.5-0.8-4.6,0.6l-1,0.8l1.9,7.1c2-1,3.8-2.3,5.4-3.8c2.7-2.6-0.1-7.6-3.7-6.4c-2.9,0.9-5,3-7.8,4l2.9,7
	c2.4-1.5,4.6-3.3,7-4.7c3.1-1.8,2-7.4-1.9-7.1c-3.8,0.3-7.4,1.8-10.3,4.2l4.6,6c3.1-2.7,6.7-4.6,10.1-6.9c2.8-2,2.2-7.5-1.9-7.1
	c-2.1,0.2-3.6,1-5.5,1.6l3.7,6.4l0.3-0.2c1.6-0.7,2.1-2.8,1.8-4.3l-0.1-0.4c-0.6-2-2.7-3.2-4.8-2.6c0,0,0,0,0,0
	c-0.3,0.1-0.6,0.2-0.8,0.4c-2.3,1.3-4.8,2.4-7.1,3.8l4.6,6c1.4-1.4,3.3-2,4.9-3.2c3.3-2.3,1.5-8.5-2.9-7c-3.4,1.2-6,3.1-9.1,4.9
	l5.8,3.3l-0.1-0.5c-0.1-1.7-1.2-3.2-2.8-3.7l-0.4-0.2c-2.9-1.2-5.3,2.2-4.7,4.7c0.2,1,0.7,1.8,1.4,2.5l-0.6-4.6l-0.3,0.3l3.3-1.9
	c-3.3,0-4.5,2.2-7.1,3.8l4.6,6c1.7-2,4-3.3,5.3-5.7c2-3.7-2.9-7.9-6-4.6c-0.3,0.4-0.6,0.7-1,0.9l2.7-1.1h-0.4l2.7,6.6
	c3-2.4,6.3-4.4,9.8-6c1.5-0.9,2.3-2.7,1.8-4.3c-0.3-0.9-0.8-1.7-1.5-2.4l-1.7,6.4c1.7-0.4,3.3-1,4.9-1.8c3.2-1.7,1.9-7.5-1.9-7.1
	c-8.6,0.9-16.5,4.9-22.2,11.4c-2.6,3-4.9,6.4-6.6,10.1c-1.8,3.6-2.2,6.6-3.3,10.5c-0.6,2.1,0.7,4.2,2.7,4.7c0,0,0,0,0,0
	c0.3,0.1,0.6,0.1,0.9,0.1h12.4c4.9,0,4.9-7.7,0-7.7h-12.5l3.7,4.8c0.5-1.7,0.6-3.4,1-5c0.4-1.2,1-2.4,1.7-3.4
	c1.3-3.1,3.1-6.1,5.3-8.7c4.1-4.7,10.5-8.5,16.8-9.1l-1.9-7.1c-1,0.4-2,0.7-3.1,1c-2.6,0.8-3.9,4.4-1.7,6.4l-0.5-1l1.8-4.3
	c-4.1,1.9-7.9,4.3-11.4,7.2c-2.7,2.1-0.4,6.6,2.7,6.5c1.6-0.1,3.1-0.9,4.1-2.1l-6-4.6c-0.9,1.6-2.9,2.7-4.1,4.2
	c-2.6,3.1,0.7,8.4,4.6,6c1.1-0.7,2.6-2.4,3.2-2.8c1.4-0.8,2.4-0.7,3.5-2.2c0.9-1.5,0.6-3.4-0.6-4.6l0.5,0.8l-4.7,4.7l0.4,0.2
	l-2.8-3.6l0.1,0.5c0.3,2.8,3,4.8,5.8,3.3c2.4-1.4,4.6-3.2,7.3-4.1l-2.9-7c-2.1,1.6-4.5,2.4-6.4,4.4c-3,3,0.9,8.3,4.6,6
	c2.3-1.4,4.7-2.5,7.1-3.8l-5.6-2.3l0.1,0.4l1.8-4.3c-0.7,0.3-1.3,0.8-1.8,1.4c-2.3,2.7-0.2,7.6,3.7,6.4c1.1-0.5,2.3-0.9,3.5-1.3
	l-1.9-7.1c-3.9,2.7-8,5-11.6,8.1c-3.2,2.8,1.2,8.7,4.6,6c2-1.5,3.9-3,6.5-3.2l-1.9-7.1c-2.4,1.4-4.7,3.2-7,4.7c-3.4,2.2-1.3,8.6,3,7
	c2.7-1,5-3.1,7.8-4l-3.7-6.4c-1.2,1.1-2.5,2-3.9,2.7c-3.4,1.8-1.8,7.1,1.9,7.1c2.5,0.1,4.9-1,6.5-3l-4.6,0.6
	c1.6,0.9,3.5,0.9,5.1,0.1l-2.9-7c-7.9,6-14.8,11.9-18.4,21.5C206.4,42.9,213.8,44.8,215.5,40.2z"/>
<polygon class="st2" points="7.8,6.7 7.8,18.9 37.9,18.9 5.4,60 5.4,71 57.4,71 57.4,58.6 23.9,58.6 56.5,17.7 56.5,6.7 "/>
<path class="st2" d="M73.8,49.6l-0.1,2.2c-0.1,2.7,0.8,5.3,2.5,7.3c1.7,2,4.2,3.1,6.8,2.9c2.1,0,4.2-0.8,5.8-2.1
	c1.7-1.3,2.6-3.3,2.6-5.3l12.7,0.9c0,1.2-0.8,3.1-2.4,5.8c-1.8,2.9-4.3,5.4-7.2,7.3c-3.2,2.2-7.2,3.3-12.1,3.3
	c-4.3,0.1-8.6-0.9-12.4-3c-3.5-2-6.4-4.9-8.2-8.5c-2-3.9-3-8.2-2.9-12.6c-0.1-4.4,0.9-8.8,2.7-12.9c1.7-3.7,4.5-6.9,7.9-9.1
	c3.7-2.3,8-3.4,12.4-3.3c3.4,0,6.8,0.7,9.9,2.2c3,1.4,5.6,3.5,7.6,6.1c3.2,4.6,4.7,10.8,4.7,18.8H73.8z M90.6,41.4
	c-0.4-6.7-3-10-8-10c-5.4,0-8.4,3.3-9,10H90.6z"/>
<path class="st2" d="M121.4,23.4v8h0.2c1.1-2.7,3-5,5.3-6.8c2.5-1.5,5.4-2.2,8.3-2.1c5.3,0,9.2,1.7,11.8,5.2c1.8,2.4,2.7,7,2.7,13.9
	V71h-13.8V45.4c0-4.1-0.4-7.1-1.1-9.1s-2.5-3-5.1-3c-2.5-0.1-4.8,1.3-5.8,3.6c-1.2,2.7-1.8,5.6-1.6,8.5V71h-13.9V23.4H121.4z"/>
<path class="st2" d="M183.1,37.6c-1.1-4.3-4.2-6.4-9.2-6.4c-4.8,0-7.1,1.4-7.1,4.2c0,1.9,1.6,3.2,4.8,3.8s6.7,1.3,10.4,1.9
	c3.5,0.5,6.7,1.9,9.4,4.1c2.6,2.1,3.9,5.6,3.9,10.5c0.1,4.9-2.3,9.6-6.4,12.4c-3.7,2.6-8.7,3.9-14.9,3.9c-4.9,0.1-9.7-1-14.1-3.3
	c-3.9-2.2-6.5-5.8-7.6-10.7l11.9-1.8c0.9,4.3,4.5,6.4,10.6,6.4c1.9,0,3.8-0.3,5.6-1c1.8-0.7,2.7-1.8,2.7-3.4c0-2.3-1.8-3.6-5.4-4
	c-6.5-0.9-11.3-1.8-14.1-2.9c-2.7-0.9-5.1-2.6-6.8-4.9c-1.7-2.3-2.6-5.1-2.6-8c0-5.5,2-9.5,5.9-12.1c3.9-2.6,8.8-3.9,14.5-3.9
	c9.5,0,15.7,4.1,18.8,12.4L183.1,37.6z"/>
<path class="st3" d="M218.8,52.2V38.6h5.7c1,0,2.1,0.1,3.1,0.4c0.6,0.3,1.2,0.7,1.5,1.3c0.4,0.6,0.6,1.4,0.6,2.1
	c0,0.9-0.3,1.8-0.9,2.5c-0.7,0.7-1.6,1.2-2.6,1.3c0.5,0.3,1,0.7,1.4,1.1c0.6,0.7,1.1,1.5,1.5,2.2l1.6,2.6h-3.2l-2-3
	c-0.4-0.7-0.9-1.4-1.4-2c-0.2-0.3-0.5-0.5-0.8-0.6c-0.4-0.1-0.9-0.2-1.4-0.2h-0.5v5.7H218.8z M221.5,44.4h2c0.8,0,1.6,0,2.4-0.2
	c0.3-0.1,0.6-0.3,0.8-0.6c0.2-0.3,0.3-0.6,0.3-1c0-0.4-0.1-0.8-0.4-1.1c-0.3-0.3-0.6-0.5-1-0.5c-0.2,0-0.9,0-2,0h-2.1V44.4z"/>
<path class="st3" d="M243.9,50.6l-1.6,2c-0.8-0.4-1.5-0.9-2.2-1.6c-0.5,0.5-1.1,0.9-1.7,1.1c-0.7,0.3-1.4,0.4-2.2,0.3
	c-1.4,0.1-2.7-0.4-3.7-1.4c-0.6-0.7-1-1.6-1-2.5c0-0.8,0.3-1.7,0.8-2.3c0.6-0.8,1.4-1.4,2.2-1.8c-0.4-0.5-0.7-1-1-1.6
	c-0.2-0.4-0.3-0.9-0.4-1.4c0-0.8,0.4-1.6,1-2.1c0.8-0.6,1.8-0.9,2.8-0.9c1-0.1,1.9,0.3,2.7,0.9c0.6,0.6,1,1.4,1,2.2
	c0,0.6-0.2,1.1-0.5,1.6c-0.5,0.7-1.2,1.3-1.9,1.7l1.9,2.5c0.3-0.5,0.4-1,0.6-1.5l2.3,0.5c-0.2,0.6-0.4,1.2-0.6,1.8
	c-0.1,0.4-0.3,0.7-0.6,1c0.3,0.3,0.7,0.6,1.1,0.9C243.2,50.2,243.5,50.4,243.9,50.6 M235.9,46c-0.5,0.2-1,0.6-1.3,1.1
	c-0.3,0.4-0.4,0.8-0.4,1.3c0,0.5,0.2,1,0.5,1.4c0.4,0.4,0.9,0.6,1.4,0.5c0.4,0,0.8-0.1,1.1-0.2c0.4-0.2,0.9-0.5,1.2-0.8L235.9,46z
	 M236.9,43.2l0.7-0.5c0.4-0.3,0.7-0.7,0.8-1.2c0-0.3-0.1-0.6-0.4-0.8c-0.3-0.2-0.6-0.4-1-0.3c-0.4,0-0.7,0.1-1,0.3
	c-0.2,0.2-0.3,0.4-0.4,0.7c0.1,0.4,0.3,0.9,0.6,1.2L236.9,43.2z"/>
<path class="st3" d="M245.3,38.6h5c0.9,0,1.7,0.1,2.5,0.3c0.8,0.2,1.5,0.7,2,1.2c0.6,0.6,1,1.4,1.3,2.2c0.3,1,0.5,2.1,0.4,3.2
	c0,1-0.1,2-0.4,2.9c-0.3,0.9-0.8,1.7-1.4,2.4c-0.5,0.5-1.2,0.9-1.9,1.1c-0.8,0.2-1.6,0.3-2.4,0.3h-5.1L245.3,38.6z M248,40.9v9h2
	c0.5,0,1.1,0,1.6-0.1c0.4-0.1,0.8-0.3,1.1-0.6c0.3-0.4,0.6-0.8,0.7-1.3c0.2-0.8,0.3-1.7,0.3-2.5c0-0.8-0.1-1.6-0.3-2.4
	c-0.1-0.5-0.4-0.9-0.8-1.3c-0.3-0.3-0.8-0.5-1.2-0.6c-0.7-0.1-1.5-0.2-2.2-0.1L248,40.9z"/>
<path class="st2" d="M290,23.4v8.9h0.3c1.8-6.5,5.2-9.8,10.1-9.8l2.4,0.1v13.9c-4.8,0-7.9,1.5-9.5,4.3s-2.3,6.9-2.3,12V71h-13.8
	V23.4H290z"/>
<path class="st4" d="M233.4,8.1c-0.2-0.1-2-0.3-1.9,0.7C232.4,8.5,233.1,9.2,233.4,8.1"/>
<path class="st4" d="M231.3,8.4c-1.2,0.4-3.8,0.6-3.5,1.6C228.6,9.1,230.7,9.6,231.3,8.4"/>
<path class="st4" d="M230.1,11.2c2.2-0.3,4.3-0.8,6.4-1.4C234.3,9.7,232.1,10.2,230.1,11.2"/>
<path class="st4" d="M234.1,11.2c0.4-0.5,2.1,0.2,2.1-0.7C235.8,11.1,234.1,10.3,234.1,11.2"/>
<path class="st4" d="M210.8,21.6c2.8-2.4,6.8-6.9,11.1-9.2c-2.5,0.5-3.7,2.3-5.9,3.1C214.7,17.8,211.2,19.2,210.8,21.6"/>
<path class="st4" d="M216.5,18.8c0.5-1,1.9-1,2.1-2.1C217.6,16.9,216.2,18,216.5,18.8"/>
<path class="st4" d="M227.3,19.5c-0.7,0.1-1.6,0-1.4,0.9C226.4,20.3,227,20,227.3,19.5"/>
<path class="st4" d="M213.9,20.4c-0.5,0.6-1,1.2-1.4,1.9C213.3,22.1,214.3,20.9,213.9,20.4"/>
<path class="st4" d="M210.1,22.8c-0.9,0.1-1.8,1.5-1.4,2.1C209.2,24.2,209.7,23.5,210.1,22.8"/>
<path class="st5" d="M273,43c-0.9-11.5-5.1-19.8-10.8-25.9c-2-0.2-3.3-2.5-5-2.4c0.8,0.4,0.6,1.2,1.3,1.6c0.2,0.1,0.4,0.1,0.6,0.2
	c0.2-0.8-1.4-0.7-0.7-1.1c0.3,0.2,1.4,0.9,1,1.2l-0.2,0v0c-0.2,0-0.4-0.1-0.6-0.2c-2.1-0.7-4.4-2.5-6.7-3.3
	c4.3,3.6,8.5,5.6,10.4,10.6c-0.5-0.9-1.3-1.6-2.1-2.1c-0.8-0.5-1.1-1.5-1.9-2.1c-5.2-4.1-11.3-6.8-17.9-7.8c-3.9-0.6-8.8,0-10.9,1.4
	c0-0.4-0.7-0.2-0.2,0s0.5,0.4,0.2,0.7c-3.6,1.3-7.8,3.2-10.6,4.5c-0.5,0.4-2,2.7-3.3,2.4c0,0.6,0.4,0.5,0,0.9
	c-2.2,0.9-4.2,4.8-5.9,6.6c-0.1,0.2-0.2,0.4-0.4,0.4c0.2-0.1,0.3-0.3,0.4-0.4l0,0c-1.6,1-0.8,3-2.6,4c0.1-0.7,1-1.7,0-2.1
	c0.6-1,1.2-2,1.7-3.1c-2.5,2.3-3,6.6-4.5,9.9c0.1-3.7,1.9-5.7,2.6-9c-1,0.4-1,1.1-1.4-0.2c-0.2,0.7-0.5,1.3-1,1.9
	c-0.4-1.8,1.4-2.7,0.7-4c-0.3,0.5-0.3,1.2-0.9,1.4c-0.1-0.4,0.3-0.5,0.2-0.9c-3.5,5.7-5.5,13.9-5.2,22.6c-0.2-1.4-0.3-6-0.7-5.4
	c0.1,3.4-0.4,7.3,0.9,9.4c-0.1,0.3-0.3,0.5-0.2,1c2.4,7.7,7.3,14.4,13.9,19.1c0,0.6,0.4,0.7,0.5,1.2c3.7,2,7.4,7.1,13.2,4.7
	c4,0.2,7-3.3,6.4-7.8c-2.1-2.7-4.6-5.2-8.3-5.7c-1.2,1.1-3.5-0.7-4.7-1.2c-0.3,0.8,1.3,0.9,0.7,1.2c-3.8-1.7-6.6-3.4-8.5-7.3
	c-0.1,0.4,0.4,0.6,0,0.7c-0.3-0.7-0.7-1.5-1.1-2.1l0,0c-0.5-0.7-0.7-1.5-0.5-2.3c0.4,1.8,1.1,0.9,0.5,2.3l0,0c0.4,0,0.4-0.3,0.7-0.5
	c0.6,1.3,1.5,2.5,2.6,3.3c-0.8-1.5-2.2-2.8-1.9-4c1.6,2.3,3.6,5.3,6.9,5.2c-1.8-1.3-3.6-2.5-4.7-4.5c0.3,0.5,1.1,0.4,1.6,0.7
	c-1.3-2.7-3.6-4.4-4-8c0.3,0,0.3,0.3,0.7,0.2c-0.4-2.5-1.2-5.9-0.7-8.5c-1.2-0.7-0.9-4.4,0.2-5c-0.5-1.9,1.4-2.4,1.4-4.5
	c0.5,0.1,0.5,0.7,0.9,0.2c1.4-3.6,4.1-6,6.1-8.9c-0.5-0.3-0.9,0.6-0.9,0c0.3-0.3,1.1-1.2,0.5-1.6c-0.8,0.8-2.2,1.7-3.3,2.8
	c3-4.2,7.5-7.1,12.5-8.4c0.2-0.1,0.3-0.1,0.5-0.1l-0.5,0.1c-0.3,0.1-0.6,0.2-0.9,0.4c-0.2,0.6,1.9,0.3,1.3,0.5
	c-2,0.6-3.8,1.8-5.3,3.3c1.4-0.9,2.9-1.5,4.5-1.9c0.1,0.8-0.8,0.6-0.2,1.2c2.2,0.3,3.7-1.4,5.4-1c-10.1,3.6-19.6,8.4-20.8,20.5
	c2.2-7,4.3-10.1,9.2-14.4c3.9-1.7,8.3-4.8,13.9-5.2c6.1-0.5,10.9,1.8,15.1,4.2c6.3,6.2,9.6,14.8,9,23.6c-0.6,9.4-6.7,15.9-11.3,20.5
	c-1.7,2.1-4.5,3.2-6.6,4.9c1.1-0.2,1.4-1,2.1-0.2c0.8-1.3,2.3-2,3.8-1.9c-1.8,0.8-3.4,1.9-4.8,3.3c3.1-0.7,5.4-3.4,7.8-4
	c-2.4,1.5-4.5,3.3-7.1,4.7c3.3,0.1,6.3-2,8.5-3.8c-3.2,3.1-7.5,5.1-10.8,7.5c1.3,0.2,2.9-1.1,4.5-1.4c0.1,0.6-1.7,0.6-0.9,1.2
	c2.3-1.3,4.9-2.3,7.1-3.8c-1.3,1.8-4,2.3-5.7,3.8c3.3-0.9,5.4-3,8.3-4.5c0,0.4,0,0.8,0.5,0.7c0.3-0.6-1-0.8-0.2-1.2
	c1.8,0.5,3.3-2.5,5.2-3.3c-1.2,1.8-4.2,3.2-4.7,5c0.3-0.3,1.2-1.3,1.4-0.9c-3.2,2.7-6.8,4.9-10.6,6.6c-0.1,0.5,0.3,0.5,0.5,0.7
	c-1.3,0.5-3,0.6-4,1.4c4.4-0.2,7-2.2,10.8-3.1c1.9-1.8,4-3.3,6.4-4.5c2.8-3.7,7.1-7.2,8.2-12.3c2-1.8,2-4.5,2.4-6.6s1.5-4.8,1.6-7.1
	C273.3,46.5,273.2,44.8,273,43"/>
<path class="st4" d="M249.2,67.3c0.1-0.1,0.3-0.3,0.4-0.4l0,0C249.4,67,249.2,67.1,249.2,67.3"/>
<path class="st4" d="M257,14c-0.1,0-0.3,0-0.2-0.2h-0.5c0,0.2,0,0.5-0.2,0.5c0-0.3-0.1-0.6-0.5-0.5C255.5,14.9,256.7,14.4,257,14"/>
<path class="st4" d="M213.2,16.2c-0.6,0.3-0.7-0.1-0.9,0.2c0.1,0.1-0.7,1.6-1.4,0.9c-0.5,0.6-0.7,1.4-0.5,2.1
	C212,19.1,211.9,16.9,213.2,16.2"/>
<path class="st4" d="M249.4,66.7l0.4-0.4l0,0C249.6,66.4,249.4,66.5,249.4,66.7"/>
<path class="st5" d="M212.4,39.4c2.1-6.2,6.6-10.9,10.2-14.4c1.7-2.1,4.5-3.2,6.6-4.9c-1.1,0.2-1.3,1-2.1,0.2
	c-0.8,1.3-2.3,2-3.8,1.9c1.8-0.8,3.4-1.9,4.7-3.3c-3.1,0.7-5.4,3.4-7.8,4c2.4-1.5,4.5-3.3,7.1-4.7c-3.2-0.1-6.3,2-8.5,3.8
	c3.2-3.1,7.5-5.1,10.9-7.5c-1.3-0.2-2.9,1.1-4.5,1.4c-0.1-0.6,1.8-0.6,1-1.2c-2.3,1.3-4.9,2.3-7.1,3.8c1.3-1.8,4-2.3,5.7-3.8
	c-3.4,0.9-5.4,3.1-8.2,4.5c0-0.4,0-0.8-0.5-0.7c-0.3,0.6,1,0.8,0.2,1.2c-1.8-0.5-3.3,2.5-5.2,3.3c1.2-1.8,4.2-3.2,4.7-5
	c-0.3,0.4-1.2,1.3-1.4,0.9c3.2-2.7,6.8-4.9,10.6-6.6c0.1-0.4-0.3-0.4-0.5-0.7c1.3-0.5,3-0.6,4-1.4c-4.4,0.2-7,2.2-10.8,3.1
	c-1.9,1.8-4,3.3-6.4,4.5c-2.8,3.7-7.1,7.1-8.3,12.2c-2,1.8-2,4.5-2.4,6.6c-0.2,0.9-0.4,1.9-0.7,2.8L212.4,39.4z"/>
<text transform="matrix(1 0 0 1 3.2803 103.4502)" class="st6 st7 st8">Zensor Research &amp; Development</text>
</svg>
