<svg id="圖層_1" data-name="圖層 1" xmlns="http://www.w3.org/2000/svg" viewBox="0 0 202.27 202.28"><defs><style>.cls-1{fill:#fff;}.cls-2{fill:#00478b;}.cls-3{fill:none;stroke:#00478b;stroke-miterlimit:10;stroke-width:1.48px;}</style></defs><rect class="cls-1" x="19.57" y="19.56" width="163.12" height="163.14"/><polygon class="cls-2" points="98.72 61.83 182.69 61.83 182.69 182.7 19.57 182.7 19.57 147.66 98.72 147.66 98.72 61.83"/><polygon class="cls-2" points="89.21 52.54 89.21 138.37 19.57 138.37 19.57 19.56 182.69 19.56 182.69 52.54 89.21 52.54"/><rect class="cls-2" x="86.86" y="132.96" width="12.38" height="3.87"/><path class="cls-2" d="M97.7,79.7H85.33V72.32H97.7Zm0,14.8H85.33V87.09H97.7Zm0,14.76H85.33v-7.39H97.7Zm0,14.77H85.33v-7.39H97.7Z" transform="translate(1.53 1.54)"/><rect class="cls-2" x="86.86" y="62.61" width="12.38" height="3.86"/><rect class="cls-3" x="0.74" y="0.74" width="200.79" height="200.8"/></svg>