<?xml version="1.0" encoding="utf-8"?>
<!-- Generator: Adobe Illustrator 25.0.1, SVG Export Plug-In . SVG Version: 6.00 Build 0)  -->
<svg version="1.1" id="圖層_1" xmlns="http://www.w3.org/2000/svg" xmlns:xlink="http://www.w3.org/1999/xlink" x="0px" y="0px"
	 viewBox="0 0 733 542.7" style="enable-background:new 0 0 733 542.7;" xml:space="preserve">
<style type="text/css">
	.st0{clip-path:url(#SVGID_2_);}
	.st1{fill:#FFFFFF;stroke:#050101;stroke-miterlimit:10;}
	.st2{fill:none;}
	.st3{fill:#FFFFFF;}
	.st4{clip-path:url(#SVGID_4_);}
	.st5{clip-path:url(#SVGID_6_);}
	.st6{fill:#FFFFFF;stroke:#150E0E;stroke-miterlimit:10;}
</style>
<image style="overflow:visible;enable-background:new    ;" width="1084" height="1176" xlink:href="D4D6D06C26AE366E.png"  transform="matrix(0.232 0 0 0.232 40.6572 77.011)">
</image>
<g>
	<defs>
		<path id="SVGID_1_" d="M153.9,64.7c0,0-34.5,84.6,53,128c0,0,13.5,10.3,51.8,8.8c0,0,87.3-7.8,90.9-100.7c0,0,7.5-59.4-60.3-92.2
			c0,0-48.6-25-99.1,9.8C190.2,18.5,163.5,36.1,153.9,64.7z"/>
	</defs>
	<clipPath id="SVGID_2_">
		<use xlink:href="#SVGID_1_"  style="overflow:visible;"/>
	</clipPath>
	<g class="st0">
		
			<image style="overflow:visible;enable-background:new    ;" width="1083" height="1169" xlink:href="D4D6D06C26AE3672.png"  transform="matrix(0.4108 0 0 0.4108 -82.8476 -3.4631)">
		</image>
		<ellipse class="st1" cx="470" cy="100.9" rx="101.2" ry="100.7"/>
	</g>
</g>
<path class="st2" d="M153.9,64.7c0,0-34.5,84.6,53,128c0,0,13.5,10.3,51.8,8.8c0,0,87.3-7.8,90.9-100.7c0,0,7.5-59.4-60.3-92.2
	c0,0-48.6-25-99.1,9.8C190.2,18.5,163.5,36.1,153.9,64.7z"/>
<g>
	
		<image style="overflow:visible;enable-background:new    ;" width="887" height="1052" xlink:href="D4D6D06C26AE3675.png"  transform="matrix(0.2556 0 0 0.2556 395.0948 73.7493)">
	</image>
	<path class="st3" d="M510.3,68.8c0,0-29.3,46.6,5,103.7c0,0,24.2,42,66.9,47c15.8,3.2,32.1,3.2,47.9,0c0,0,95.2-23.9,78.3-123.5
		c0,0-8-61.7-76.2-81.7c0,0-43.2-16.3-88.7,15.9C543.5,30.2,519.3,45.4,510.3,68.8z"/>
	<g>
		<defs>
			<path id="SVGID_3_" d="M510.3,68.8c0,0-29.3,46.6,5,103.7c0,0,24.2,42,66.9,47c15.8,3.2,32.1,3.2,47.9,0
				c0,0,95.2-23.9,78.3-123.5c0,0-8-61.7-76.2-81.7c0,0-43.2-16.3-88.7,15.9C543.5,30.2,519.3,45.4,510.3,68.8z"/>
		</defs>
		<clipPath id="SVGID_4_">
			<use xlink:href="#SVGID_3_"  style="overflow:visible;"/>
		</clipPath>
		<g class="st4">
			
				<image style="overflow:visible;enable-background:new    ;" width="889" height="1054" xlink:href="D4D6D06C26AE3676.png"  transform="matrix(0.3735 0 0 0.3735 359.906 13.1405)">
			</image>
			<circle class="st1" cx="905.9" cy="90.8" r="105.6"/>
		</g>
	</g>
	<path class="st2" d="M510.3,68.8c0,0-29.3,46.6,5,103.7c0,0,24.2,42,66.9,47c15.8,3.2,32.1,3.2,47.9,0c0,0,95.2-23.9,78.3-123.5
		c0,0-8-61.7-76.2-81.7c0,0-43.2-16.3-88.7,15.9C543.5,30.2,519.3,45.4,510.3,68.8z"/>
</g>
<g>
	
		<image style="overflow:visible;enable-background:new    ;" width="1034" height="1057" xlink:href="D4D6D06C26AE3674.png"  transform="matrix(0.2709 0 0 0.2709 145.62 223.4929)">
	</image>
	<path class="st3" d="M419.2,327.6c0,0-62.5-41.3-125.6,6.9c0,0-46.2,31.6-43,87.6c0,0-0.5,44.4,26.9,72.4c0,0,25.3,33.1,68.6,37.4
		c0,0,64.5,13.3,107.9-48.9c0,0,40.8-56.9,2-118.4C456,364.5,438.9,337,419.2,327.6z"/>
	<g>
		<defs>
			<path id="SVGID_5_" d="M419.2,327.6c0,0-62.5-41.3-125.6,6.9c0,0-46.2,31.6-43,87.6c0,0-0.5,44.4,26.9,72.4
				c0,0,25.3,33.1,68.6,37.4c0,0,64.5,13.3,107.9-48.9c0,0,40.8-56.9,2-118.4C456,364.5,438.9,337,419.2,327.6z"/>
		</defs>
		<clipPath id="SVGID_6_">
			<use xlink:href="#SVGID_5_"  style="overflow:visible;"/>
		</clipPath>
		<g class="st5">
			
				<image style="overflow:visible;enable-background:new    ;" width="1035" height="1058" xlink:href="D4D6D06C26AE3673.png"  transform="matrix(0.364 0 0 0.364 74.4864 188.771)">
			</image>
			<circle class="st6" cx="637.8" cy="457" r="110.8"/>
		</g>
	</g>
	<path class="st2" d="M419.2,327.6c0,0-62.5-41.3-125.6,6.9c0,0-46.2,31.6-43,87.6c0,0-0.5,44.4,26.9,72.4c0,0,25.3,33.1,68.6,37.4
		c0,0,64.5,13.3,107.9-48.9c0,0,40.8-56.9,2-118.4C456,364.5,438.9,337,419.2,327.6z"/>
</g>
</svg>
