<svg id="圖層_1" data-name="圖層 1" xmlns="http://www.w3.org/2000/svg" viewBox="0 0 80.31 80.31"><defs><style>.cls-1{fill:#fff;}.cls-2{fill:#00478b;}</style></defs><rect class="cls-1" x="9.51" y="9.51" width="61.28" height="61.28"/><polygon class="cls-2" points="69.72 40.02 55.08 40.02 55.08 28.66 53.24 28.66 53.24 44.92 38.59 44.92 38.59 32.93 36.86 32.93 36.86 49.2 21.59 49.2 21.59 37.41 19.97 37.41 19.97 53.69 9.51 53.69 9.51 70.8 70.79 70.8 70.79 24.11 69.72 24.11 69.72 40.02"/><polygon class="cls-2" points="9.51 9.51 9.51 50.2 16.49 50.2 16.49 33.93 25.08 33.93 25.08 45.71 33.38 45.71 33.38 29.44 42.08 29.44 42.08 41.44 49.75 41.44 49.75 25.17 58.56 25.17 58.56 36.53 66.24 36.53 66.24 20.62 70.79 20.62 70.79 9.51 9.51 9.51"/><path class="cls-2" d="M90.15,90.15H9.85V9.85h80.3ZM14.73,85.27H85.27V14.73H14.73Z" transform="translate(-9.85 -9.85)"/></svg>