<svg id="圖層_1" data-name="圖層 1" xmlns="http://www.w3.org/2000/svg" viewBox="0 0 43.93 43.93"><defs><style>.cls-1{fill:#fff;}.cls-2{fill:#389a6c;}</style></defs><rect class="cls-1" x="4.87" y="4.87" width="34.2" height="34.2"/><polygon class="cls-2" points="14.5 11.96 29.23 29.24 39.07 18.78 39.07 4.87 4.87 4.87 4.87 22.56 14.5 11.96"/><polygon class="cls-2" points="29.16 29.49 14.46 5.63 4.87 20.22 4.87 39.07 39.07 39.07 39.07 14.91 29.16 29.49"/><path class="cls-2" d="M47,47H3V3H47ZM4.88,45.12H45.12V4.88H4.88Z" transform="translate(-3.03 -3.03)"/><path class="cls-1" d="M17.8,29.84l2.69-.24a5.85,5.85,0,0,0,.88,2.65,4.85,4.85,0,0,0,2.17,1.68,8.13,8.13,0,0,0,3.3.64,7.76,7.76,0,0,0,2.88-.49,4,4,0,0,0,1.86-1.32,3.15,3.15,0,0,0,.61-1.85,2.82,2.82,0,0,0-.59-1.77,4.45,4.45,0,0,0-1.94-1.27c-.58-.22-1.85-.57-3.83-1.05a19.22,19.22,0,0,1-4.15-1.34,5.72,5.72,0,0,1-2.3-2,4.81,4.81,0,0,1-.76-2.67,5.44,5.44,0,0,1,.93-3.05,5.69,5.69,0,0,1,2.7-2.15,10.22,10.22,0,0,1,3.95-.73,10.7,10.7,0,0,1,4.22.77,6.11,6.11,0,0,1,2.81,2.26,6.53,6.53,0,0,1,1.06,3.4l-2.73.2a4.43,4.43,0,0,0-1.49-3.08,5.79,5.79,0,0,0-3.76-1,6,6,0,0,0-3.76.94,2.83,2.83,0,0,0-1.18,2.29,2.49,2.49,0,0,0,.83,1.91c.55.49,2,1,4.3,1.53a28.29,28.29,0,0,1,4.76,1.37A6.51,6.51,0,0,1,34,27.62a5.37,5.37,0,0,1,.89,3.06,5.88,5.88,0,0,1-1,3.23,6.45,6.45,0,0,1-2.83,2.37,9.88,9.88,0,0,1-4.14.84,12.37,12.37,0,0,1-4.9-.85A6.86,6.86,0,0,1,19,33.71,7.26,7.26,0,0,1,17.8,29.84Z" transform="translate(-3.03 -3.03)"/></svg>