<svg id="圖層_1" data-name="圖層 1" xmlns="http://www.w3.org/2000/svg" viewBox="0 0 80.31 80.31"><defs><style>.cls-1{fill:#00478b;}.cls-2{fill:#fff;}</style></defs><rect class="cls-1" x="9.51" y="9.51" width="61.29" height="61.28"/><polygon class="cls-2" points="19.11 49.69 9.51 49.69 9.51 46.2 15.63 46.2 15.63 30.81 27.53 30.81 27.53 41.56 31.31 41.56 31.31 26.74 43.22 26.74 43.22 37.78 47.58 37.78 47.58 22.1 59.19 22.1 59.19 34.15 62.97 34.15 62.97 18.03 70.8 18.03 70.8 21.52 66.46 21.52 66.46 37.64 55.71 37.64 55.71 25.58 51.06 25.58 51.06 41.27 39.73 41.27 39.73 30.23 34.8 30.23 34.8 45.05 24.05 45.05 24.05 34.3 19.11 34.3 19.11 49.69"/><path class="cls-1" d="M90.15,89.37H9.85V9.06h80.3ZM14.73,84.49H85.27V13.94H14.73Z" transform="translate(-9.85 -9.06)"/></svg>