<svg id="圖層_1" data-name="圖層 1" xmlns="http://www.w3.org/2000/svg" viewBox="0 0 44.54 44.54"><defs><style>.cls-1{fill:#fff;}.cls-2{fill:#389a6c;}</style></defs><rect class="cls-1" x="4.93" y="4.94" width="34.67" height="34.67"/><polygon class="cls-2" points="14.7 12.13 29.63 29.64 39.6 19.04 39.6 4.94 4.93 4.94 4.93 22.87 14.7 12.13"/><polygon class="cls-2" points="29.56 29.9 14.65 5.71 4.93 20.5 4.93 39.6 39.6 39.6 39.6 15.12 29.56 29.9"/><path class="cls-2" d="M47.88,47.68H3.34V3.15H47.88ZM5.22,45.81H46V5H5.22Z" transform="translate(-3.34 -3.15)"/><path class="cls-1" d="M26.8,37.33V32.11H17.33V29.65l10-14.13h2.19V29.65h2.94v2.46H29.48v5.22Zm0-7.68V19.82L20,29.65Z" transform="translate(-3.34 -3.15)"/></svg>