<svg id="圖層_1" data-name="圖層 1" xmlns="http://www.w3.org/2000/svg" viewBox="0 0 80.31 80.31"><defs><style>.cls-1{fill:#fff;}.cls-2{fill:#00478b;}</style></defs><rect class="cls-1" x="9.51" y="9.51" width="61.28" height="61.28"/><polygon class="cls-2" points="39.25 54.91 70.79 54.91 70.79 9.51 9.51 9.51 9.51 22.67 39.25 22.67 39.25 54.91"/><polygon class="cls-2" points="35.67 58.4 35.67 26.16 9.51 26.16 9.51 70.8 70.79 70.8 70.79 58.4 35.67 58.4"/><rect class="cls-2" x="34.79" y="26.74" width="4.65" height="1.45"/><path class="cls-2" d="M50.31,58.9H45.66V56.13h4.65Zm0-5.55H45.66V50.57h4.65Zm0-5.55H45.66V45h4.65Zm0-5.55H45.66V39.48h4.65Z" transform="translate(-10.87 -8.5)"/><rect class="cls-2" x="34.79" y="53.17" width="4.65" height="1.45"/><path class="cls-2" d="M91.17,88.81H10.87V8.5h80.3ZM15.75,83.93H86.3V13.38H15.75Z" transform="translate(-10.87 -8.5)"/></svg>