<svg id="圖層_1" data-name="圖層 1" xmlns="http://www.w3.org/2000/svg" xmlns:xlink="http://www.w3.org/1999/xlink" viewBox="0 0 81.12 81.12"><defs><style>.cls-1{fill:none;}.cls-2{fill:#231815;}.cls-3{fill:#0d131a;}.cls-4{clip-path:url(#clip-path);}.cls-5{fill:#fff;}</style><clipPath id="clip-path" transform="translate(-7.8 -7.16)"><rect class="cls-1" x="16.59" y="16.46" width="62.86" height="62.86"/></clipPath></defs><path class="cls-2" d="M88.92,88.27H7.8V7.16H88.92ZM12.73,83.35H84V12.08H12.73Z" transform="translate(-7.8 -7.16)"/><rect class="cls-3" x="8.79" y="9.31" width="62.86" height="62.86"/><g class="cls-4"><path class="cls-5" d="M30.31,49c-1.53-13.72-4.08-18.6-5.95-18.6C22,30.4,18.92,38.33,18.24,49l-1.94-.13c.52-8.19,3.1-20.38,8.06-20.38,1.39,0,5.62,0,7.89,20.34Z" transform="translate(-7.8 -7.16)"/><path class="cls-5" d="M58.33,49c-1.53-13.72-4.08-18.6-5.95-18.6-2.33,0-5.44,7.93-6.12,18.56l-1.94-.13c.52-8.19,3.1-20.38,8.06-20.38,1.39,0,5.62,0,7.88,20.34Z" transform="translate(-7.8 -7.16)"/><path class="cls-5" d="M38.2,69.12c-1.4,0-5.62,0-7.89-20.34l1.94-.21c1.52,13.71,4.07,18.6,6,18.6,2.32,0,5.43-7.93,6.12-18.56l1.94.13C45.73,56.93,43.15,69.12,38.2,69.12Z" transform="translate(-7.8 -7.16)"/><path class="cls-5" d="M66.47,69.12c-1.56,0-5.54-.75-8.14-20.14l1.93-.26c1.83,13.61,4.46,18.46,6.33,18.46h0c2.33-.06,5.26-8.07,5.7-18.71l2,.08c-.34,8.21-2.65,20.46-7.6,20.57Z" transform="translate(-7.8 -7.16)"/><path class="cls-5" d="M74.27,48.62l-2-.08C72.67,40.34,75,28.09,79.93,28c1.45,0,5.62-.13,8.34,20.15l-1.93.26C84.5,34.69,81.76,29.84,80,29.91,77.65,30,74.72,38,74.27,48.62Z" transform="translate(-7.8 -7.16)"/></g></svg>