<?xml version="1.0" encoding="utf-8"?>
<!-- Generator: Adobe Illustrator 25.0.1, SVG Export Plug-In . SVG Version: 6.00 Build 0)  -->
<svg version="1.1" id="Capa_1" xmlns="http://www.w3.org/2000/svg" xmlns:xlink="http://www.w3.org/1999/xlink" x="0px" y="0px"
	 viewBox="0 0 512.2 512.2" style="enable-background:new 0 0 512.2 512.2;" xml:space="preserve">
<style type="text/css">
	.st0{fill:#595959;}
	.st1{fill:#565656;}
	.st2{font-family:'Arial-Black';}
	.st3{font-size:123.4743px;}
	.st4{fill:none;}
	.st5{fill:none;stroke:#565656;stroke-width:7;stroke-miterlimit:10;}
</style>
<g>
	<g>
		<path class="st0" d="M251.6,48.5L129.9,170.6c-1.7,1.7-2.2,4.3-1.3,6.6c1,2.3,3.2,3.8,5.6,3.8h67.1v152.5c0,3.4,2.7,6.1,6.1,6.1
			H305c3.4,0,6.1-2.7,6.1-6.1V181H378c2.5,0,4.7-1.5,5.6-3.8c0.3-0.8,0.5-1.5,0.5-2.3c0-1.6-0.6-3.1-1.8-4.3L260.2,48.5
			c-1.1-1.1-2.7-1.8-4.3-1.8C254.3,46.7,252.7,47.3,251.6,48.5z"/>
	</g>
</g>
<text transform="matrix(1 0 0 1 129.0571 472.6615)" class="st1 st2 st3">TOP</text>
<polygon class="st4" points="1042.1,472.7 1044.3,472.7 1044.3,472.7 "/>
<rect x="9.1" y="9.1" class="st5" width="493.1" height="493.1"/>
</svg>
