<?xml version="1.0" encoding="utf-8"?>
<!-- Generator: Adobe Illustrator 25.0.1, SVG Export Plug-In . SVG Version: 6.00 Build 0)  -->
<svg version="1.1" id="圖層_1" xmlns="http://www.w3.org/2000/svg" xmlns:xlink="http://www.w3.org/1999/xlink" x="0px" y="0px"
	 viewBox="0 0 64 64" style="enable-background:new 0 0 64 64;" xml:space="preserve">
<style type="text/css">
	.st0{fill:#F7F7F7;}
	.st1{fill:#00CF2E;}
	.st2{fill:#FFFFFF;}
</style>
<rect class="st0" width="64" height="64"/>
<g id="_5-line">
	<path class="st1" d="M52.8,64H11.2C5,64,0,59,0,52.8V11.2C0,5,5,0,11.2,0h41.6C59,0,64,5,64,11.2v41.6C64,59,59,64,52.8,64z"/>
	<path class="st2" d="M56.4,28.4c0-8.8-10.4-18.4-24-18.4c-13.2,0-24,7.8-24,18.4c0,9.8,8.4,17.9,20.2,19c0.7,0.1,1.4,0.5,1.8,1.1
		c0.3,0.4,0.4,1,0.4,1.5c0,1.1-0.1,2.2-0.4,3.2c-0.1,0.4,0.2,0.9,0.6,1c0.2,0,0.3,0,0.5,0C37.2,51.6,56.4,41.4,56.4,28.4z"/>
	<path class="st1" d="M23.6,32.8H20v-8.4c0-0.7-0.5-1.2-1.2-1.2c-0.7,0-1.2,0.5-1.2,1.2c0,0,0,0,0,0V34c0,0.7,0.5,1.2,1.2,1.2h0h4.8
		c0.7,0,1.2-0.5,1.2-1.2S24.3,32.8,23.6,32.8z"/>
	<path class="st1" d="M26.8,23.2c-0.7,0-1.2,0.5-1.2,1.2v0V34c0,0.7,0.5,1.2,1.2,1.2S28,34.7,28,34v-9.6
		C28,23.7,27.5,23.2,26.8,23.2z"/>
	<path class="st1" d="M38,23.2c-0.7,0-1.2,0.5-1.2,1.2v0v6l-5-6.7c-0.4-0.5-1.1-0.6-1.7-0.2c-0.3,0.2-0.5,0.6-0.5,1V34
		c0.1,0.7,0.7,1.1,1.4,1c0.5-0.1,0.9-0.5,1-1v-6l5,6.7c0.2,0.3,0.6,0.5,1,0.5c0.1,0,0.3,0,0.4-0.1c0.5-0.2,0.8-0.6,0.8-1.1v-9.6
		C39.2,23.7,38.7,23.2,38,23.2z"/>
	<path class="st1" d="M46.8,30.4c0.7,0,1.2-0.5,1.2-1.2c0-0.7-0.5-1.2-1.2-1.2c0,0,0,0,0,0h-3.6v-2.4h3.6c0.7,0,1.2-0.5,1.2-1.2
		c0-0.7-0.5-1.2-1.2-1.2c0,0,0,0,0,0H42c-0.7,0-1.2,0.5-1.2,1.2v0V34c0,0.7,0.5,1.2,1.2,1.2l0,0h4.8c0.7,0,1.2-0.5,1.2-1.2
		s-0.5-1.2-1.2-1.2h-3.6v-2.4H46.8z"/>
</g>
</svg>
