<?xml version="1.0" encoding="utf-8"?>
<!-- Generator: Adobe Illustrator 25.0.1, SVG Export Plug-In . SVG Version: 6.00 Build 0)  -->
<svg version="1.1" id="圖層_1" xmlns="http://www.w3.org/2000/svg" xmlns:xlink="http://www.w3.org/1999/xlink" x="0px" y="0px"
	 viewBox="0 0 64 64" style="enable-background:new 0 0 64 64;" xml:space="preserve">
<style type="text/css">
	.st0{fill:#F7F7F7;}
	.st1{fill:#00D332;}
	.st2{fill:#FFFFFF;}
</style>
<rect x="0" y="0" class="st0" width="64" height="64"/>
<g id="_9-wechat">
	<path class="st1" d="M11.2,0h41.6C59,0,64,5,64,11.2v41.6C64,59,59,64,52.8,64H11.2C5,64,0,59,0,52.8V11.2C0,5,5,0,11.2,0z"/>
	<path class="st2" d="M24.9,11.3c-10.2,0-18.5,6.9-18.5,15.4C6.5,31.5,9,35.9,13,38.5l-0.7,4.9c0,0.2,0.1,0.4,0.3,0.5
		c0.1,0,0.2,0,0.2,0l5.9-2.5c2.2,0.8,4.6,1.1,6.9,0.9c-0.4-1.1-0.5-2.3-0.5-3.5c0-7.9,7.6-14.3,17-14.3c0.3,0,0.7,0,1,0
		C41.8,17,34.2,11.3,24.9,11.3z M18.3,24.3c-1.3,0-2.4-1.1-2.4-2.4s1.1-2.4,2.4-2.4c1.3,0,2.4,1.1,2.4,2.4l0,0
		C20.7,23.2,19.7,24.3,18.3,24.3L18.3,24.3z M31,24.3c-1.3,0-2.4-1.1-2.4-2.4c0-1.3,1.1-2.4,2.4-2.4c1.3,0,2.4,1.1,2.4,2.4
		C33.3,23.2,32.3,24.3,31,24.3L31,24.3z"/>
	<path class="st2" d="M57.6,38.6c0-7-6.9-12.7-15.4-12.7s-15.4,5.7-15.4,12.7s6.9,12.7,15.4,12.7c1.9,0,3.8-0.3,5.6-0.9l4.1,2.2
		c0.2,0.1,0.4,0,0.5-0.2c0-0.1,0.1-0.2,0-0.2L52,48.3C55.4,46.2,57.5,42.6,57.6,38.6z M37,36.1c-1,0-1.8-0.8-1.8-1.8
		s0.8-1.8,1.8-1.8c1,0,1.8,0.8,1.8,1.8l0,0C38.8,35.3,38,36.1,37,36.1z M47.4,36.1c-1,0-1.8-0.8-1.8-1.8s0.8-1.8,1.8-1.8
		c1,0,1.8,0.8,1.8,1.8l0,0C49.2,35.3,48.4,36.1,47.4,36.1L47.4,36.1z"/>
</g>
</svg>
