<?xml version="1.0" encoding="utf-8"?>
<!-- Generator: Adobe Illustrator 25.0.1, SVG Export Plug-In . SVG Version: 6.00 Build 0)  -->
<svg version="1.1" id="圖層_1" xmlns="http://www.w3.org/2000/svg" xmlns:xlink="http://www.w3.org/1999/xlink" x="0px" y="0px"
	 viewBox="0 0 24 24" style="enable-background:new 0 0 24 24;" xml:space="preserve">
<style type="text/css">
	.st0{fill:#0098CE;}
</style>
<path class="st0" d="M12,0C5.4,0,0,5.4,0,12s5.4,12,12,12s12-5.4,12-12S18.6,0,12,0z M19,14h-5v5h-4v-5H5v-4h5V5h4v5h5V14z"/>
<path class="st0" d="M-219.1,255.4c-24.1,0-43.8-19.6-43.8-43.8s19.6-43.8,43.8-43.8s43.8,19.6,43.8,43.8S-195,255.4-219.1,255.4z
	 M-219.1,173.3c-21.1,0-38.3,17.2-38.3,38.3s17.2,38.3,38.3,38.3s38.3-17.2,38.3-38.3S-198,173.3-219.1,173.3z"/>
<path class="st0" d="M-200,214.3h-38.3c-1.5,0-2.7-1.2-2.7-2.7s1.2-2.7,2.7-2.7h38.3c1.5,0,2.7,1.2,2.7,2.7S-198.5,214.3-200,214.3z
	"/>
<path class="st0" d="M-219.1,233.5c-1.5,0-2.7-1.2-2.7-2.7v-38.3c0-1.5,1.2-2.7,2.7-2.7s2.7,1.2,2.7,2.7v38.3
	C-216.4,232.3-217.6,233.5-219.1,233.5z"/>
</svg>
