<?xml version="1.0" encoding="utf-8"?>
<!-- Generator: Adobe Illustrator 25.0.1, SVG Export Plug-In . SVG Version: 6.00 Build 0)  -->
<svg version="1.1" id="圖層_1" xmlns="http://www.w3.org/2000/svg" xmlns:xlink="http://www.w3.org/1999/xlink" x="0px" y="0px"
	 viewBox="0 0 64 64" style="enable-background:new 0 0 64 64;" xml:space="preserve">
<style type="text/css">
	.st0{fill:#F7F7F7;}
	.st1{fill:#208ECE;}
	.st2{fill:#FFFFFF;}
	.st3{fill:#00CF2E;}
</style>
<rect class="st0" width="64" height="64"/>
<rect x="-1" y="-1.8" class="st1" width="67.3" height="67.1"/>
<g id="_5-line">
	<path class="st2" d="M62,26.5C62,15.7,49.4,3.8,32.9,3.8c-16,0-29.1,9.6-29.1,22.7C3.8,38.6,14,48.6,28.3,50
		c0.8,0.1,1.7,0.6,2.2,1.4c0.4,0.5,0.5,1.2,0.5,1.9c0,1.4-0.1,2.7-0.5,4c-0.1,0.5,0.2,1.1,0.7,1.2c0.2,0,0.4,0,0.6,0
		C38.7,55.2,62,42.6,62,26.5z"/>
	<path class="st3" d="M22.2,32h-4.4V21.6c0-0.9-0.6-1.5-1.5-1.5c-0.8,0-1.5,0.6-1.5,1.5l0,0v11.9c0,0.9,0.6,1.5,1.5,1.5l0,0h5.8
		c0.8,0,1.5-0.6,1.5-1.5C23.6,32.6,23,32,22.2,32z"/>
	<path class="st3" d="M26.1,20.1c-0.8,0-1.5,0.6-1.5,1.5l0,0v11.9c0,0.9,0.6,1.5,1.5,1.5s1.5-0.6,1.5-1.5V21.6
		C27.5,20.7,26.9,20.1,26.1,20.1z"/>
	<path class="st3" d="M39.6,20.1c-0.8,0-1.5,0.6-1.5,1.5l0,0V29L32,20.7c-0.5-0.6-1.3-0.7-2.1-0.2c-0.4,0.2-0.6,0.7-0.6,1.2v11.7
		c0.1,0.9,0.8,1.4,1.7,1.2c0.6-0.1,1.1-0.6,1.2-1.2V26l6.1,8.3c0.2,0.4,0.7,0.6,1.2,0.6c0.1,0,0.4,0,0.5-0.1c0.6-0.2,1-0.7,1-1.4
		V21.6C41.1,20.7,40.5,20.1,39.6,20.1z"/>
	<path class="st3" d="M50.3,29c0.8,0,1.5-0.6,1.5-1.5S51.2,26,50.3,26l0,0H46v-3h4.4c0.8,0,1.5-0.6,1.5-1.5S51.3,20,50.4,20l0,0
		h-5.8c-0.8,0-1.5,0.6-1.5,1.5l0,0v11.9c0,0.9,0.6,1.5,1.5,1.5l0,0h5.8c0.8,0,1.5-0.6,1.5-1.5s-0.6-1.5-1.5-1.5H46v-3L50.3,29
		L50.3,29z"/>
</g>
</svg>
