<?xml version="1.0" encoding="utf-8"?>
<!-- Generator: Adobe Illustrator 25.0.1, SVG Export Plug-In . SVG Version: 6.00 Build 0)  -->
<svg version="1.1"
	 id="Layer_1" xmlns:cc="http://creativecommons.org/ns#" xmlns:dc="http://purl.org/dc/elements/1.1/" xmlns:inkscape="http://www.inkscape.org/namespaces/inkscape" xmlns:rdf="http://www.w3.org/1999/02/22-rdf-syntax-ns#" xmlns:sodipodi="http://sodipodi.sourceforge.net/DTD/sodipodi-0.dtd" xmlns:svg="http://www.w3.org/2000/svg"
	 xmlns="http://www.w3.org/2000/svg" xmlns:xlink="http://www.w3.org/1999/xlink" x="0px" y="0px" viewBox="0 0 512 512"
	 style="enable-background:new 0 0 512 512;" xml:space="preserve">
<style type="text/css">
	.st0{fill:#F7F7F7;}
	.st1{fill:#272F3C;}
	.st2{fill:#3B5998;}
	.st3{fill:#FFFFFF;}
</style>
<rect class="st0" width="512" height="512"/>
<rect class="st1" width="512" height="512"/>
<g id="g5991">
	<path id="rect2987" class="st2" d="M64,0h384c35.3,0,64,28.7,64,64v384c0,35.3-28.7,64-64,64H64c-35.3,0-64-28.7-64-64V64
		C0,28.7,28.7,0,64,0z"/>
	<path id="f_1_" class="st3" d="M287,456V273.5h61.2l9.2-71.1H287V157c0-20.6,5.7-34.6,35.2-34.6h37.7V58.8
		C353.3,57.9,331,56,305,56c-54.3,0-91.4,33.1-91.4,94v52.4h-61.4v71.1h61.4V456H287L287,456z"/>
</g>
</svg>
