<?xml version="1.0" encoding="utf-8"?>
<!-- Generator: Adobe Illustrator 25.0.1, SVG Export Plug-In . SVG Version: 6.00 Build 0)  -->
<svg version="1.1" id="圖層_1" xmlns="http://www.w3.org/2000/svg" xmlns:xlink="http://www.w3.org/1999/xlink" x="0px" y="0px"
	 viewBox="0 0 64 64" style="enable-background:new 0 0 64 64;" xml:space="preserve">
<style type="text/css">
	.st0{fill:#F7F7F7;}
	.st1{fill:#208ECE;}
	.st2{fill:#FFFFFF;}
</style>
<rect class="st0" width="64" height="64"/>
<rect x="-2.2" y="-0.9" class="st1" width="68.3" height="67"/>
<g id="_9-wechat">
	<path class="st2" d="M23.5,4.4c-12.2,0-22.2,8.3-22.2,18.4c0.1,5.7,3.1,11,7.9,14.1l-0.8,5.9c0,0.2,0.1,0.5,0.4,0.6
		c0.1,0,0.2,0,0.2,0l7.1-3c2.6,1,5.5,1.3,8.3,1.1c-0.5-1.3-0.6-2.8-0.6-4.2c0-9.4,9.1-17.1,20.4-17.1c0.4,0,0.8,0,1.2,0
		C43.8,11.2,34.6,4.4,23.5,4.4z M15.5,20c-1.6,0-2.9-1.3-2.9-2.9c0-1.6,1.3-2.9,2.9-2.9s2.9,1.3,2.9,2.9l0,0
		C18.4,18.7,17.2,20,15.5,20L15.5,20z M30.8,20c-1.6,0-2.9-1.3-2.9-2.9c0-1.6,1.3-2.9,2.9-2.9c1.6,0,2.9,1.3,2.9,2.9
		C33.6,18.7,32.4,20,30.8,20L30.8,20z"/>
	<path class="st2" d="M62.7,37.1c0-8.4-8.3-15.2-18.5-15.2s-18.5,6.8-18.5,15.2S34,52.3,44.2,52.3c2.3,0,4.6-0.4,6.7-1.1l4.9,2.6
		c0.2,0.1,0.5,0,0.6-0.2c0-0.1,0.1-0.2,0-0.2L56,48.7C60.1,46.2,62.6,41.9,62.7,37.1z M38,34.1c-1.2,0-2.2-1-2.2-2.2s1-2.2,2.2-2.2
		s2.2,1,2.2,2.2l0,0C40.2,33.1,39.2,34.1,38,34.1z M50.5,34.1c-1.2,0-2.2-1-2.2-2.2s1-2.2,2.2-2.2s2.2,1,2.2,2.2l0,0
		C52.7,33.1,51.7,34.1,50.5,34.1L50.5,34.1z"/>
</g>
</svg>
