<svg id="圖層_1" data-name="圖層 1" xmlns="http://www.w3.org/2000/svg" viewBox="0 0 150 33.06"><defs><style>.cls-1{fill:#00cf2e;}.cls-2{isolation:isolate;font-size:15.56px;font-family:FZLTZHB--B51-0, Lantinghei TC;}.cls-2,.cls-3{fill:#fff;}</style></defs><rect class="cls-1" width="150" height="33.06" rx="16.53"/><text class="cls-2" transform="translate(58.42 22.86)">L I N E</text><path class="cls-3" d="M37.34,15.64c0-5.18-6.29-10.83-14.52-10.83-8,0-14.52,4.59-14.52,10.83,0,5.77,5.08,10.54,12.22,11.19a1.62,1.62,0,0,1,1.09.64,1.53,1.53,0,0,1,.24.89,6.51,6.51,0,0,1-.24,1.88.52.52,0,0,0,.36.59h.3C25.72,29.3,37.34,23.29,37.34,15.64Z" transform="translate(0 0)"/><path class="cls-1" d="M17.5,18.23H15.32V13.29a.73.73,0,0,0-1.45,0h0v5.65a.68.68,0,0,0,.72.7H17.5a.68.68,0,0,0,.72-.7A.69.69,0,0,0,17.5,18.23Z" transform="translate(0 0)"/><path class="cls-1" d="M19.43,12.58a.69.69,0,0,0-.72.71h0v5.65a.68.68,0,0,0,.72.7.69.69,0,0,0,.73-.7V13.29A.69.69,0,0,0,19.43,12.58Z" transform="translate(0 0)"/><path class="cls-1" d="M26.21,12.58a.69.69,0,0,0-.73.71h0v3.53l-3-4a.76.76,0,0,0-1-.11.7.7,0,0,0-.3.58v5.6a.71.71,0,0,0,.84.59.78.78,0,0,0,.61-.59V15.4l3,4a.74.74,0,0,0,.61.29.36.36,0,0,0,.24-.06.68.68,0,0,0,.48-.64V13.29A.69.69,0,0,0,26.21,12.58Z" transform="translate(0 0)"/><path class="cls-1" d="M31.53,16.82a.71.71,0,1,0,0-1.42H29.35V14h2.18a.71.71,0,1,0,0-1.41h-2.9a.69.69,0,0,0-.73.71h0v5.65a.69.69,0,0,0,.73.7h2.9a.69.69,0,0,0,.73-.7.7.7,0,0,0-.73-.71H29.35V16.82Z" transform="translate(0 0)"/></svg>