<svg id="圖層_1" data-name="圖層 1" xmlns="http://www.w3.org/2000/svg" viewBox="0 0 150 33.06"><defs><style>.cls-1{fill:#00d332;}.cls-2{isolation:isolate;font-size:15.56px;font-family:FZLTZHB--B51-0, Lantinghei TC;}.cls-2,.cls-4{fill:#fff;}.cls-3{fill:#00cf2e;}</style></defs><rect class="cls-1" width="150" height="33.06" rx="16.53"/><text class="cls-2" transform="translate(50.94 22.86)">WECHAT</text><path class="cls-3" d="M17.5,18.23H15.32V13.29a.73.73,0,0,0-1.45,0h0v5.65a.68.68,0,0,0,.72.7H17.5a.68.68,0,0,0,.72-.7A.69.69,0,0,0,17.5,18.23Z" transform="translate(0 0)"/><path class="cls-3" d="M19.43,12.58a.69.69,0,0,0-.72.71h0v5.65a.68.68,0,0,0,.72.7.69.69,0,0,0,.73-.7V13.29A.69.69,0,0,0,19.43,12.58Z" transform="translate(0 0)"/><path class="cls-3" d="M26.21,12.58a.69.69,0,0,0-.73.71h0v3.53l-3-4a.76.76,0,0,0-1-.11.7.7,0,0,0-.3.58v5.6a.71.71,0,0,0,.84.59.78.78,0,0,0,.61-.59V15.4l3,4a.74.74,0,0,0,.61.29.36.36,0,0,0,.24-.06.68.68,0,0,0,.48-.64V13.29A.69.69,0,0,0,26.21,12.58Z" transform="translate(0 0)"/><path class="cls-3" d="M31.53,16.82a.71.71,0,1,0,0-1.42H29.35V14h2.18a.71.71,0,1,0,0-1.41h-2.9a.69.69,0,0,0-.73.71h0v5.65a.69.69,0,0,0,.73.7h2.9a.69.69,0,0,0,.73-.7.7.7,0,0,0-.73-.71H29.35V16.82Z" transform="translate(0 0)"/><g id="_9-wechat" data-name=" 9-wechat"><path class="cls-4" d="M18.62,5.19c-6.09,0-11,4.12-11,9.2a8.65,8.65,0,0,0,3.94,7.06l-.42,2.93a.32.32,0,0,0,.18.29h.12l3.53-1.49a9.66,9.66,0,0,0,4.12.54,6.12,6.12,0,0,1-.3-2.09c0-4.72,4.55-8.55,10.16-8.55h.6C28.73,8.6,24.18,5.19,18.62,5.19ZM14.68,13a1.44,1.44,0,1,1,1.43-1.43h0A1.41,1.41,0,0,1,14.68,13Zm7.59,0a1.44,1.44,0,1,1,1.43-1.43A1.48,1.48,0,0,1,22.27,13Z" transform="translate(0 0)"/><path class="cls-4" d="M38.17,21.51c0-4.19-4.13-7.59-9.21-7.59s-9.2,3.4-9.2,7.59S23.88,29.1,29,29.1a10.54,10.54,0,0,0,3.35-.54l2.45,1.31a.22.22,0,0,0,.3-.12c0-.06.06-.11,0-.11l-.24-2.34A7,7,0,0,0,38.17,21.51ZM25.86,20a1.08,1.08,0,1,1,1.07-1.07h0A1.07,1.07,0,0,1,25.86,20Zm6.21,0a1.08,1.08,0,1,1,1.08-1.07h0A1.07,1.07,0,0,1,32.07,20Z" transform="translate(0 0)"/></g></svg>